%FSLAX44Y44*%
%MOMM*%
G71*
G01*
G75*
G04 Layer_Color=16711935*
%ADD10R,1.7000X1.2500*%
%ADD11O,0.7000X2.5000*%
%ADD12C,1.5000*%
%ADD13C,0.5000*%
%ADD14C,7.2200*%
%ADD15R,1.2000X1.2000*%
%ADD16C,1.2000*%
%ADD17R,2.5000X2.5000*%
%ADD18C,2.5000*%
%ADD19C,1.2700*%
%ADD20R,1.2500X1.7000*%
%ADD21R,1.7000X1.1000*%
%ADD22R,2.0320X1.7780*%
%ADD23R,4.8440X7.6200*%
%ADD24C,0.2000*%
%ADD25C,0.2500*%
%ADD26C,0.2540*%
%ADD27R,1.9032X1.4532*%
%ADD28O,0.9032X2.7032*%
%ADD29R,1.4032X1.4032*%
%ADD30C,1.4032*%
%ADD31R,2.7032X2.7032*%
%ADD32C,2.7032*%
%ADD33C,1.4732*%
%ADD34R,1.4532X1.9032*%
%ADD35R,1.9032X1.3032*%
%ADD36R,2.2352X1.9812*%
%ADD37R,5.0472X7.8232*%
G36*
X294988Y78056D02*
X298987Y76843D01*
X302672Y74873D01*
X305903Y72223D01*
X308554Y68992D01*
X310523Y65307D01*
X311736Y61308D01*
X312146Y57150D01*
X311736Y52991D01*
X310523Y48993D01*
X308554Y45308D01*
X305903Y42077D01*
X302672Y39427D01*
X298987Y37457D01*
X294988Y36244D01*
X290830Y35834D01*
X286672Y36244D01*
X282673Y37457D01*
X278988Y39427D01*
X275757Y42077D01*
X273106Y45308D01*
X271137Y48993D01*
X269924Y52991D01*
X269514Y57150D01*
X269924Y61308D01*
X271137Y65307D01*
X273106Y68992D01*
X275757Y72223D01*
X278988Y74873D01*
X282673Y76843D01*
X286672Y78056D01*
X290830Y78466D01*
X294988Y78056D01*
D02*
G37*
G36*
X296259Y139016D02*
X300257Y137803D01*
X303942Y135834D01*
X307173Y133183D01*
X309823Y129952D01*
X311793Y126267D01*
X313006Y122268D01*
X313416Y118110D01*
X313006Y113952D01*
X311793Y109953D01*
X309823Y106268D01*
X307173Y103037D01*
X303942Y100386D01*
X300257Y98417D01*
X296259Y97204D01*
X292100Y96794D01*
X287941Y97204D01*
X283943Y98417D01*
X280258Y100386D01*
X277027Y103037D01*
X274377Y106268D01*
X272407Y109953D01*
X271194Y113952D01*
X270784Y118110D01*
X271194Y122268D01*
X272407Y126267D01*
X274377Y129952D01*
X277027Y133183D01*
X280258Y135834D01*
X283943Y137803D01*
X287941Y139016D01*
X292100Y139426D01*
X296259Y139016D01*
D02*
G37*
G36*
X330549Y215216D02*
X334547Y214003D01*
X338232Y212034D01*
X341463Y209383D01*
X344114Y206152D01*
X346083Y202467D01*
X347296Y198468D01*
X347706Y194310D01*
X347296Y190152D01*
X346083Y186153D01*
X344114Y182468D01*
X341463Y179237D01*
X338232Y176586D01*
X334547Y174617D01*
X330549Y173404D01*
X326390Y172994D01*
X322231Y173404D01*
X318233Y174617D01*
X314548Y176586D01*
X311317Y179237D01*
X308666Y182468D01*
X306697Y186153D01*
X305484Y190152D01*
X305074Y194310D01*
X305484Y198468D01*
X306697Y202467D01*
X308666Y206152D01*
X311317Y209383D01*
X314548Y212034D01*
X318233Y214003D01*
X322231Y215216D01*
X326390Y215626D01*
X330549Y215216D01*
D02*
G37*
G36*
X294988Y328056D02*
X298987Y326843D01*
X302672Y324874D01*
X305903Y322223D01*
X308554Y318993D01*
X310523Y315307D01*
X311736Y311308D01*
X312146Y307150D01*
X311736Y302992D01*
X310523Y298993D01*
X308554Y295308D01*
X305903Y292077D01*
X302672Y289426D01*
X298987Y287457D01*
X294988Y286244D01*
X290830Y285834D01*
X286672Y286244D01*
X282673Y287457D01*
X278988Y289426D01*
X275757Y292077D01*
X273106Y295308D01*
X271137Y298993D01*
X269924Y302992D01*
X269514Y307150D01*
X269924Y311308D01*
X271137Y315307D01*
X273106Y318993D01*
X275757Y322223D01*
X278988Y324874D01*
X282673Y326843D01*
X286672Y328056D01*
X290830Y328466D01*
X294988Y328056D01*
D02*
G37*
G36*
X296259Y389016D02*
X300257Y387803D01*
X303942Y385834D01*
X307173Y383183D01*
X309823Y379953D01*
X311793Y376267D01*
X313006Y372268D01*
X313416Y368110D01*
X313006Y363951D01*
X311793Y359953D01*
X309823Y356268D01*
X307173Y353037D01*
X303942Y350387D01*
X300257Y348417D01*
X296259Y347204D01*
X292100Y346794D01*
X287941Y347204D01*
X283943Y348417D01*
X280258Y350387D01*
X277027Y353037D01*
X274377Y356268D01*
X272407Y359953D01*
X271194Y363951D01*
X270784Y368110D01*
X271194Y372268D01*
X272407Y376267D01*
X274377Y379953D01*
X277027Y383183D01*
X280258Y385834D01*
X283943Y387803D01*
X287941Y389016D01*
X292100Y389426D01*
X296259Y389016D01*
D02*
G37*
G36*
X330549Y465216D02*
X334547Y464003D01*
X338232Y462034D01*
X341463Y459383D01*
X344114Y456152D01*
X346083Y452467D01*
X347296Y448469D01*
X347706Y444310D01*
X347296Y440151D01*
X346083Y436153D01*
X344114Y432468D01*
X341463Y429237D01*
X338232Y426586D01*
X334547Y424617D01*
X330549Y423404D01*
X326390Y422994D01*
X322231Y423404D01*
X318233Y424617D01*
X314548Y426586D01*
X311317Y429237D01*
X308666Y432468D01*
X306697Y436153D01*
X305484Y440151D01*
X305074Y444310D01*
X305484Y448469D01*
X306697Y452467D01*
X308666Y456152D01*
X311317Y459383D01*
X314548Y462034D01*
X318233Y464003D01*
X322231Y465216D01*
X326390Y465626D01*
X330549Y465216D01*
D02*
G37*
D12*
X292100Y108110D02*
D03*
Y128110D02*
D03*
X326390Y204310D02*
D03*
Y184310D02*
D03*
X290830Y47150D02*
D03*
Y67150D02*
D03*
X292100Y358110D02*
D03*
Y378110D02*
D03*
X326390Y454310D02*
D03*
Y434310D02*
D03*
X290830Y297150D02*
D03*
Y317150D02*
D03*
D14*
X380000Y50000D02*
D03*
X120000Y200000D02*
D03*
X380000Y300000D02*
D03*
X120000Y450000D02*
D03*
D26*
X313313Y118110D02*
G03*
X313313Y118110I-21213J0D01*
G01*
X347603Y194310D02*
G03*
X347603Y194310I-21213J0D01*
G01*
X312043Y57150D02*
G03*
X312043Y57150I-21213J0D01*
G01*
X313313Y368110D02*
G03*
X313313Y368110I-21213J0D01*
G01*
X347603Y444310D02*
G03*
X347603Y444310I-21213J0D01*
G01*
X312043Y307150D02*
G03*
X312043Y307150I-21213J0D01*
G01*
D29*
X406400Y112160D02*
D03*
Y362160D02*
D03*
D30*
Y137160D02*
D03*
Y387160D02*
D03*
D31*
X460000Y67850D02*
D03*
X40000Y182150D02*
D03*
X460000Y317850D02*
D03*
X40000Y432150D02*
D03*
D32*
X460000Y105950D02*
D03*
Y144050D02*
D03*
Y182150D02*
D03*
X40000Y144050D02*
D03*
Y105950D02*
D03*
Y67850D02*
D03*
X460000Y355950D02*
D03*
Y394050D02*
D03*
Y432150D02*
D03*
X40000Y394050D02*
D03*
Y355950D02*
D03*
Y317850D02*
D03*
D33*
X188722Y167386D02*
D03*
X147320Y30480D02*
D03*
X172212D02*
D03*
X83820Y123190D02*
D03*
X323850Y74930D02*
D03*
X153416Y132080D02*
D03*
X226060Y31750D02*
D03*
X63500Y53340D02*
D03*
X188722Y417386D02*
D03*
X147320Y280480D02*
D03*
X172212D02*
D03*
X83820Y373190D02*
D03*
X323850Y324930D02*
D03*
X153416Y382080D02*
D03*
X226060Y281750D02*
D03*
X63500Y303340D02*
D03*
D34*
X231110Y105410D02*
D03*
X195610D02*
D03*
X135860D02*
D03*
X100360D02*
D03*
X231110Y55880D02*
D03*
X195610D02*
D03*
X135860D02*
D03*
X100360D02*
D03*
X231110Y355410D02*
D03*
X195610D02*
D03*
X135860D02*
D03*
X100360D02*
D03*
X231110Y305880D02*
D03*
X195610D02*
D03*
X135860D02*
D03*
X100360D02*
D03*
D35*
X383540Y110960D02*
D03*
Y137960D02*
D03*
Y360960D02*
D03*
Y387960D02*
D03*
D36*
X213360Y166370D02*
D03*
Y191770D02*
D03*
Y217170D02*
D03*
Y416370D02*
D03*
Y441770D02*
D03*
Y467170D02*
D03*
D37*
X409139Y191770D02*
D03*
Y441770D02*
D03*
M02*
