%FSLAX44Y44*%
%MOMM*%
G71*
G01*
G75*
G04 Layer_Physical_Order=2*
G04 Layer_Color=16711680*
%ADD10R,1.7000X1.2500*%
%ADD11O,0.7000X2.5000*%
%ADD12C,1.5000*%
%ADD13C,0.5000*%
%ADD14C,7.2200*%
%ADD15R,1.2000X1.2000*%
%ADD16C,1.2000*%
%ADD17R,2.5000X2.5000*%
%ADD18C,2.5000*%
%ADD19C,1.2700*%
%ADD20R,1.2500X1.7000*%
%ADD21R,1.7000X1.1000*%
%ADD22R,2.0320X1.7780*%
%ADD23R,4.8440X7.6200*%
G36*
X312107Y115609D02*
X311964Y114159D01*
X310812Y110359D01*
X308940Y106858D01*
X306421Y103789D01*
X303352Y101270D01*
X299851Y99398D01*
X296051Y98246D01*
X292100Y97857D01*
X288149Y98246D01*
X284349Y99398D01*
X280848Y101270D01*
X277779Y103789D01*
X275260Y106858D01*
X273389Y110359D01*
X272236Y114159D01*
X272093Y115609D01*
X312100Y115610D01*
X312107Y115609D01*
D02*
G37*
G36*
X283779Y144743D02*
X286271Y137404D01*
X288149Y137974D01*
X292100Y138363D01*
X296051Y137974D01*
X297929Y137404D01*
X299551Y142182D01*
X309290Y144453D01*
X343876Y109866D01*
X345544Y108752D01*
X347510Y108361D01*
X372500D01*
X372500Y102920D01*
D01*
X367429Y97849D01*
X356870D01*
X354903Y97458D01*
X353236Y96344D01*
X339623Y82730D01*
X331615Y79413D01*
X330190Y81270D01*
Y81271D01*
X330190Y81270D01*
X328333Y82695D01*
X326171Y83591D01*
X325120Y83729D01*
Y74930D01*
X322580D01*
Y83729D01*
X321529Y83591D01*
X319367Y82695D01*
X317510Y81270D01*
X316085Y79413D01*
X315189Y77251D01*
X306794Y73473D01*
X306794D01*
X303725Y75992D01*
X303500Y76112D01*
X303303Y76274D01*
X299801Y78145D01*
X299557Y78219D01*
X299332Y78340D01*
X295969Y79360D01*
Y95635D01*
X296305Y95669D01*
X296549Y95743D01*
X296803Y95768D01*
X300602Y96920D01*
X300827Y97041D01*
X301071Y97114D01*
X304573Y98986D01*
X304770Y99148D01*
X304995Y99268D01*
X308064Y101787D01*
X308226Y101984D01*
X308423Y102146D01*
X310942Y105215D01*
X311062Y105440D01*
X311224Y105637D01*
X313095Y109139D01*
X313169Y109383D01*
X313290Y109608D01*
X313460Y110168D01*
X313460D01*
X313460Y110168D01*
X314442Y113407D01*
D01*
X314442Y113407D01*
X314442Y113407D01*
X314445Y113430D01*
X314467Y113661D01*
Y113661D01*
X314541Y113905D01*
X314541Y113905D01*
X314554Y114035D01*
X314684Y115355D01*
D01*
D01*
X314684Y115355D01*
X314669Y115507D01*
D01*
D01*
D01*
D01*
D01*
X314669Y115507D01*
Y115507D01*
X314683Y115578D01*
X314690Y115610D01*
D01*
D01*
D01*
D01*
D01*
D01*
D01*
Y115610D01*
X314690Y115610D01*
X314633Y115896D01*
X314605Y116293D01*
X314605Y116293D01*
D01*
X314605Y116293D01*
D01*
D01*
D01*
Y116293D01*
D01*
X314585Y116361D01*
X314514Y116494D01*
X314514Y116494D01*
X314514Y116494D01*
X314493Y116601D01*
X314326Y116850D01*
X314153Y117197D01*
X314126Y117221D01*
X314109Y117252D01*
X313995Y117345D01*
X313931Y117441D01*
X313669Y117616D01*
X313389Y117859D01*
X313355Y117871D01*
X313328Y117893D01*
X313195Y117934D01*
X313091Y118003D01*
X313091Y118003D01*
X313091Y118003D01*
X312762Y118068D01*
X312430Y118179D01*
X312424Y118180D01*
X312424Y118180D01*
D01*
D01*
D01*
X312420Y118179D01*
X312414Y118179D01*
X312414D01*
D01*
D01*
D01*
X312407Y118178D01*
X312391Y118177D01*
X312361Y118186D01*
X312361Y118187D01*
D01*
D01*
D01*
X312231Y118174D01*
X312231Y118174D01*
X312231Y118174D01*
D01*
D01*
X312100Y118200D01*
X312100Y118200D01*
D01*
D01*
X312100D01*
D01*
D01*
D01*
D01*
D01*
D01*
X308505Y118200D01*
X308505D01*
D01*
X306391Y120611D01*
X277810Y120610D01*
X275695Y118199D01*
X272093Y118199D01*
D01*
D01*
D01*
D01*
D01*
D01*
X272093D01*
D01*
D01*
X272093Y118199D01*
X271967Y118174D01*
X271967Y118174D01*
X271962Y118174D01*
D01*
D01*
D01*
D01*
D01*
X271962Y118174D01*
X271839Y118187D01*
D01*
D01*
D01*
D01*
D01*
D01*
D01*
X271839Y118186D01*
X271475Y118076D01*
X271102Y118002D01*
X271102Y118002D01*
D01*
D01*
D01*
D01*
D01*
D01*
Y118002D01*
D01*
X271102Y118002D01*
X271102Y118002D01*
X270995Y117930D01*
X270872Y117893D01*
X270578Y117652D01*
X270262Y117440D01*
X270191Y117333D01*
X270091Y117252D01*
X269912Y116917D01*
X269701Y116600D01*
X269675Y116474D01*
X269615Y116361D01*
X269615Y116361D01*
X269615D01*
X269615D01*
Y116361D01*
D01*
D01*
X269615D01*
Y116361D01*
X269578Y115982D01*
X269503Y115609D01*
X269503Y115609D01*
D01*
D01*
D01*
X269506Y115597D01*
X269511Y115570D01*
Y115570D01*
D01*
D01*
D01*
D01*
D01*
X269516Y115545D01*
X269517Y115543D01*
X269527Y115489D01*
Y115489D01*
D01*
D01*
D01*
D01*
D01*
X269528Y115487D01*
X269528Y115487D01*
X269528Y115483D01*
X269528Y115483D01*
X269516Y115355D01*
X269516Y115355D01*
D01*
D01*
X269646Y114035D01*
X269659Y113905D01*
X269659Y113905D01*
X269733Y113661D01*
Y113661D01*
X269755Y113430D01*
X269758Y113407D01*
X269758Y113407D01*
X269758Y113407D01*
D01*
X270741Y110167D01*
Y110167D01*
X270741D01*
X270910Y109608D01*
X271031Y109383D01*
X271105Y109139D01*
X272976Y105637D01*
X273138Y105440D01*
X273258Y105215D01*
X275777Y102146D01*
X275974Y101984D01*
X276136Y101787D01*
X279205Y99268D01*
X279430Y99148D01*
X279627Y98986D01*
X283129Y97114D01*
X283373Y97041D01*
X283598Y96920D01*
X285691Y96285D01*
Y79360D01*
X282328Y78340D01*
X282103Y78219D01*
X281859Y78145D01*
X278357Y76274D01*
X278160Y76112D01*
X277935Y75992D01*
X274866Y73473D01*
X274704Y73276D01*
X274507Y73114D01*
X273829Y72289D01*
X261460D01*
X259494Y71898D01*
X257826Y70784D01*
X252906Y65864D01*
X251792Y64197D01*
X251401Y62230D01*
X251401Y62230D01*
X251401D01*
X251401Y62230D01*
X251401D01*
Y41498D01*
X249139Y39236D01*
X239900Y43063D01*
Y44840D01*
X239900D01*
Y66920D01*
X239900D01*
X238187Y68912D01*
D01*
X238186Y68913D01*
X239854Y70026D01*
X256364Y86536D01*
X257478Y88203D01*
X257869Y90170D01*
X257869Y90170D01*
X257869Y90170D01*
Y90170D01*
Y130187D01*
X273673Y145991D01*
X283263D01*
X283779Y144743D01*
D02*
G37*
G36*
X294781Y77014D02*
X298581Y75862D01*
X302082Y73990D01*
X305151Y71471D01*
X307670Y68402D01*
X309541Y64901D01*
X310694Y61101D01*
X310837Y59651D01*
X270830Y59650D01*
X270823Y59651D01*
X270966Y61101D01*
X272118Y64901D01*
X273990Y68402D01*
X276509Y71471D01*
X279578Y73990D01*
X283079Y75862D01*
X286879Y77014D01*
X290830Y77403D01*
X294781Y77014D01*
D02*
G37*
G36*
X446038Y176367D02*
X447434Y173754D01*
X449314Y171464D01*
X451604Y169584D01*
X454217Y168188D01*
X454506Y168100D01*
Y158100D01*
X454217Y158012D01*
X451604Y156616D01*
X449314Y154736D01*
X447434Y152446D01*
X446038Y149833D01*
X445178Y146998D01*
X444887Y144050D01*
X445178Y141102D01*
X446038Y138267D01*
X447434Y135654D01*
X449314Y133364D01*
X451604Y131484D01*
X454217Y130088D01*
X454506Y130000D01*
Y120000D01*
X454217Y119912D01*
X451604Y118516D01*
X449314Y116636D01*
X447434Y114346D01*
X446038Y111733D01*
X445178Y108898D01*
X444887Y105950D01*
X445178Y103002D01*
X446038Y100167D01*
X447434Y97554D01*
X449314Y95264D01*
X451604Y93384D01*
X453089Y92590D01*
X451577Y86555D01*
X441940Y83888D01*
X414940Y110887D01*
Y120700D01*
X414532D01*
X411318Y130169D01*
X412491Y131069D01*
X413860Y132853D01*
X414720Y134931D01*
X414846Y135890D01*
X406400D01*
Y138430D01*
X414846D01*
X414720Y139389D01*
X413860Y141467D01*
X413365Y142112D01*
X416510Y148489D01*
X418498Y151080D01*
X433359D01*
X434351Y151277D01*
X435191Y151839D01*
X435752Y152679D01*
X435949Y153670D01*
Y175548D01*
X445841Y177015D01*
X446038Y176367D01*
D02*
G37*
G36*
X141339Y132490D02*
X145166Y123251D01*
X139947Y116450D01*
X137130D01*
Y105410D01*
Y94370D01*
X141206D01*
X141206Y94370D01*
X141206Y94370D01*
X144650Y94370D01*
X148277Y90743D01*
Y66920D01*
X148277D01*
X144650D01*
X141206Y66920D01*
X141206Y66920D01*
X141206Y66920D01*
X137130D01*
Y55880D01*
X135860D01*
Y54610D01*
X127070D01*
Y44840D01*
X127070Y44840D01*
D01*
X121779Y39549D01*
X109150D01*
Y44840D01*
X109150D01*
Y66920D01*
X91570D01*
Y61019D01*
X68639D01*
Y82450D01*
X68248Y84417D01*
X67134Y86084D01*
X53645Y99572D01*
X53962Y100167D01*
X54822Y103002D01*
X55113Y105950D01*
X54822Y108898D01*
X53962Y111733D01*
X52566Y114346D01*
X50686Y116636D01*
X48396Y118516D01*
X45783Y119912D01*
X45494Y120000D01*
Y129708D01*
X54072Y134849D01*
X74657Y123846D01*
X74907Y123596D01*
X74853Y123190D01*
X75159Y120869D01*
X76055Y118707D01*
X77480Y116850D01*
X79337Y115425D01*
X81499Y114529D01*
X83820Y114223D01*
X84226Y114277D01*
X91570Y106933D01*
Y94370D01*
X109150D01*
Y116450D01*
X96587D01*
X92787Y123190D01*
X92481Y125511D01*
X91585Y127673D01*
X90259Y129403D01*
X90611Y130118D01*
X96918Y138338D01*
X141339Y132490D01*
D02*
G37*
G36*
X495922Y126645D02*
X486078Y124687D01*
X484964Y126354D01*
X473645Y137673D01*
X473962Y138267D01*
X474822Y141102D01*
X475113Y144050D01*
X474822Y146998D01*
X473962Y149833D01*
X472566Y152446D01*
X470686Y154736D01*
X468396Y156616D01*
X465783Y158012D01*
X465494Y158100D01*
Y168100D01*
X465783Y168188D01*
X468396Y169584D01*
X470686Y171464D01*
X472566Y173754D01*
X473962Y176367D01*
X474822Y179202D01*
X474988Y180880D01*
X460000D01*
Y182150D01*
X458730D01*
Y197138D01*
X457052Y196972D01*
X454217Y196112D01*
X451604Y194716D01*
X449314Y192836D01*
X447434Y190546D01*
X446038Y187933D01*
X445841Y187285D01*
X435949Y188752D01*
Y229870D01*
X435752Y230861D01*
X435191Y231701D01*
X434351Y232263D01*
X433359Y232460D01*
X384919D01*
X383928Y232263D01*
X383088Y231701D01*
X382527Y230861D01*
X382330Y229870D01*
Y153670D01*
X382330Y153670D01*
X382330Y153670D01*
X382527Y152679D01*
X372531Y146000D01*
X372500D01*
Y139230D01*
X383540D01*
Y137960D01*
X384810D01*
Y129920D01*
X392814D01*
X396321Y125026D01*
X397860Y120700D01*
X397860D01*
Y119000D01*
X394580D01*
Y119000D01*
X372500D01*
Y118639D01*
X349639D01*
X313514Y154764D01*
X311847Y155878D01*
X309880Y156269D01*
X273673D01*
X261805Y168137D01*
X264000Y179171D01*
X309389D01*
X310067Y178346D01*
X310264Y178184D01*
X310426Y177987D01*
X313495Y175468D01*
X313720Y175348D01*
X313917Y175186D01*
X317419Y173314D01*
X317663Y173241D01*
X317888Y173120D01*
X321687Y171968D01*
X321941Y171943D01*
X322185Y171869D01*
X326136Y171479D01*
X326390Y171504D01*
X326644Y171479D01*
X330595Y171869D01*
X330839Y171943D01*
X331093Y171968D01*
X334892Y173120D01*
X335117Y173241D01*
X335361Y173314D01*
X338863Y175186D01*
X339060Y175348D01*
X339285Y175468D01*
X342354Y177987D01*
X342516Y178184D01*
X342713Y178346D01*
X345232Y181415D01*
X345352Y181640D01*
X345514Y181837D01*
X347385Y185339D01*
X347459Y185583D01*
X347580Y185808D01*
X348732Y189607D01*
X348757Y189861D01*
X348831Y190105D01*
X348974Y191555D01*
X348959Y191707D01*
X348980Y191810D01*
X348923Y192096D01*
X348895Y192493D01*
X348879Y192525D01*
X348875Y192561D01*
X348804Y192694D01*
X348783Y192801D01*
X348616Y193050D01*
X348443Y193397D01*
X348416Y193421D01*
X348399Y193452D01*
X348286Y193545D01*
X348286Y193545D01*
X348286D01*
X348399Y195168D01*
X348578Y195503D01*
X348789Y195820D01*
X348815Y195946D01*
X348875Y196059D01*
X348912Y196438D01*
X348987Y196811D01*
X348987Y196811D01*
X348964Y196924D01*
X348962Y196937D01*
X348974Y197065D01*
X348831Y198515D01*
X348757Y198759D01*
X348732Y199013D01*
X347580Y202812D01*
X347459Y203037D01*
X347385Y203281D01*
X345514Y206783D01*
X345352Y206980D01*
X345232Y207205D01*
X342713Y210274D01*
X342516Y210436D01*
X342354Y210633D01*
X339285Y213152D01*
X339060Y213272D01*
X338863Y213434D01*
X335361Y215306D01*
X335117Y215380D01*
X334892Y215500D01*
X331093Y216652D01*
X330839Y216677D01*
X330595Y216751D01*
X326644Y217141D01*
X326390Y217115D01*
X326136Y217141D01*
X322185Y216751D01*
X321941Y216677D01*
X321687Y216652D01*
X317888Y215500D01*
X317663Y215380D01*
X317419Y215306D01*
X313917Y213434D01*
X313720Y213272D01*
X313495Y213152D01*
X310426Y210633D01*
X310264Y210436D01*
X310067Y210274D01*
X309390Y209449D01*
X262638D01*
X236044Y236044D01*
X235582Y236352D01*
X238485Y245922D01*
X495922D01*
Y126645D01*
D02*
G37*
G36*
X442136Y40816D02*
X443803Y39702D01*
X445770Y39311D01*
X471170D01*
X473136Y39702D01*
X474804Y40816D01*
X484964Y50976D01*
X486078Y52643D01*
X495922Y50685D01*
Y4078D01*
X395736D01*
X393785Y13886D01*
X397596Y15465D01*
X402782Y18643D01*
X407407Y22593D01*
X411357Y27218D01*
X414535Y32404D01*
X416862Y38023D01*
X418282Y43937D01*
X418660Y48730D01*
X380000D01*
Y51270D01*
X419257D01*
X427762Y55191D01*
X442136Y40816D01*
D02*
G37*
G36*
X106215Y236114D02*
X102404Y234535D01*
X97218Y231357D01*
X92593Y227407D01*
X88643Y222782D01*
X85465Y217596D01*
X83138Y211978D01*
X81718Y206063D01*
X81341Y201270D01*
X120000D01*
Y198730D01*
X81341D01*
X81718Y193937D01*
X83138Y188023D01*
X83917Y186140D01*
X79998Y183522D01*
X71179Y188236D01*
Y194310D01*
X70788Y196276D01*
X70418Y196830D01*
X69674Y197944D01*
X55704Y211914D01*
X54036Y213028D01*
X52070Y213419D01*
X20192D01*
X18947Y213171D01*
X18226Y213028D01*
X18226Y213028D01*
X18226Y213028D01*
X17313Y212418D01*
X16559Y211914D01*
X14146Y209501D01*
X14146Y209501D01*
X14146Y209501D01*
X13685Y208811D01*
X13648Y208755D01*
X10789Y209622D01*
X4078Y216333D01*
Y245922D01*
X104264D01*
X106215Y236114D01*
D02*
G37*
G36*
X330341Y214174D02*
X334141Y213022D01*
X337642Y211150D01*
X340711Y208631D01*
X343230Y205562D01*
X345102Y202061D01*
X346254Y198261D01*
X346397Y196811D01*
X306390Y196810D01*
X306383Y196811D01*
X306526Y198261D01*
X307679Y202061D01*
X309550Y205562D01*
X312069Y208631D01*
X315138Y211150D01*
X318639Y213022D01*
X322439Y214174D01*
X326390Y214563D01*
X330341Y214174D01*
D02*
G37*
G36*
X310837Y54649D02*
X310694Y53199D01*
X309541Y49399D01*
X307670Y45898D01*
X305151Y42829D01*
X302082Y40310D01*
X298581Y38438D01*
X294781Y37286D01*
X290830Y36897D01*
X286879Y37286D01*
X283079Y38438D01*
X279578Y40310D01*
X276509Y42829D01*
X273990Y45898D01*
X272118Y49399D01*
X270966Y53199D01*
X270823Y54649D01*
X310830Y54650D01*
X310837Y54649D01*
D02*
G37*
G36*
X346397Y191809D02*
X346254Y190359D01*
X345102Y186559D01*
X343230Y183058D01*
X340711Y179989D01*
X337642Y177470D01*
X334141Y175599D01*
X330341Y174446D01*
X326390Y174057D01*
X322439Y174446D01*
X318639Y175599D01*
X315138Y177470D01*
X312069Y179989D01*
X309550Y183058D01*
X307679Y186559D01*
X306526Y190359D01*
X306383Y191809D01*
X346390Y191810D01*
X346397Y191809D01*
D02*
G37*
%LPC*%
G36*
X134590Y66920D02*
X127070D01*
Y57150D01*
X134590D01*
Y66920D01*
D02*
G37*
G36*
X382270Y136690D02*
X372500D01*
Y129920D01*
X382270D01*
Y136690D01*
D02*
G37*
G36*
X461270Y197138D02*
Y183420D01*
X474988D01*
X474822Y185098D01*
X473962Y187933D01*
X472566Y190546D01*
X470686Y192836D01*
X468396Y194716D01*
X465783Y196112D01*
X462948Y196972D01*
X461270Y197138D01*
D02*
G37*
G36*
X134590Y104140D02*
X127070D01*
Y94370D01*
X134590D01*
Y104140D01*
D02*
G37*
G36*
Y116450D02*
X127070D01*
Y106680D01*
X134590D01*
Y116450D01*
D02*
G37*
%LPD*%
G36*
X312107Y365609D02*
X311964Y364159D01*
X310812Y360359D01*
X308940Y356858D01*
X306421Y353789D01*
X303352Y351270D01*
X299851Y349398D01*
X296051Y348246D01*
X292100Y347857D01*
X288149Y348246D01*
X284349Y349398D01*
X280848Y351270D01*
X277779Y353789D01*
X275260Y356858D01*
X273389Y360359D01*
X272236Y364159D01*
X272093Y365609D01*
X312100Y365610D01*
X312107Y365609D01*
D02*
G37*
G36*
X283779Y394743D02*
X286271Y387404D01*
X288149Y387974D01*
X292100Y388363D01*
X296051Y387974D01*
X297929Y387404D01*
X299551Y392182D01*
X309290Y394453D01*
X343876Y359866D01*
X345544Y358752D01*
X347510Y358361D01*
X372500D01*
X372500Y352920D01*
D01*
X367429Y347849D01*
X356870D01*
X354903Y347458D01*
X353236Y346344D01*
X339623Y332730D01*
X331615Y329413D01*
X330190Y331270D01*
Y331270D01*
X330190Y331270D01*
X328333Y332695D01*
X326171Y333591D01*
X325120Y333730D01*
Y324930D01*
X322580D01*
Y333730D01*
X321529Y333591D01*
X319367Y332695D01*
X317510Y331270D01*
X316085Y329413D01*
X315189Y327251D01*
X306794Y323473D01*
X306794D01*
X303725Y325992D01*
X303500Y326112D01*
X303303Y326274D01*
X299801Y328145D01*
X299557Y328219D01*
X299332Y328340D01*
X295969Y329360D01*
Y345636D01*
X296305Y345669D01*
X296549Y345743D01*
X296803Y345768D01*
X300602Y346920D01*
X300827Y347040D01*
X301071Y347114D01*
X304573Y348986D01*
X304770Y349148D01*
X304995Y349268D01*
X308064Y351787D01*
X308226Y351984D01*
X308423Y352146D01*
X310942Y355215D01*
X311062Y355440D01*
X311224Y355637D01*
X313095Y359139D01*
X313169Y359383D01*
X313290Y359608D01*
X313460Y360168D01*
X313460D01*
X313460Y360168D01*
X314442Y363407D01*
D01*
X314442Y363407D01*
X314442Y363407D01*
X314445Y363430D01*
X314467Y363661D01*
Y363661D01*
X314541Y363905D01*
X314541Y363905D01*
X314554Y364035D01*
X314684Y365355D01*
D01*
D01*
X314684Y365355D01*
X314669Y365507D01*
D01*
D01*
D01*
D01*
D01*
X314669Y365507D01*
Y365507D01*
X314683Y365578D01*
X314690Y365610D01*
D01*
D01*
D01*
D01*
D01*
D01*
D01*
Y365610D01*
X314690Y365610D01*
X314633Y365896D01*
X314605Y366293D01*
X314605Y366293D01*
D01*
X314605Y366293D01*
D01*
D01*
D01*
Y366294D01*
D01*
X314585Y366361D01*
X314514Y366494D01*
X314514Y366494D01*
X314514Y366494D01*
X314493Y366601D01*
X314326Y366850D01*
X314153Y367197D01*
X314126Y367221D01*
X314109Y367252D01*
X313995Y367345D01*
X313931Y367441D01*
X313669Y367616D01*
X313389Y367859D01*
X313355Y367870D01*
X313328Y367893D01*
X313195Y367934D01*
X313091Y368003D01*
X313091Y368003D01*
X313091Y368003D01*
X312762Y368068D01*
X312430Y368179D01*
X312424Y368180D01*
X312424Y368180D01*
D01*
D01*
D01*
X312420Y368179D01*
X312414Y368179D01*
X312414D01*
D01*
D01*
D01*
X312407Y368178D01*
X312391Y368177D01*
X312361Y368186D01*
X312361Y368186D01*
D01*
D01*
D01*
X312231Y368174D01*
X312231Y368174D01*
X312231Y368174D01*
D01*
D01*
X312100Y368200D01*
X312100Y368200D01*
D01*
D01*
X312100D01*
D01*
D01*
D01*
D01*
D01*
D01*
X308505Y368200D01*
X308505D01*
D01*
X306391Y370611D01*
X277810Y370610D01*
X275695Y368199D01*
X272093Y368199D01*
D01*
D01*
D01*
D01*
D01*
D01*
X272093D01*
D01*
D01*
X272093Y368199D01*
X271967Y368174D01*
X271967Y368174D01*
X271962Y368174D01*
D01*
D01*
D01*
D01*
D01*
X271962Y368174D01*
X271839Y368186D01*
D01*
D01*
D01*
D01*
D01*
D01*
D01*
X271839Y368186D01*
X271475Y368076D01*
X271102Y368002D01*
X271102Y368002D01*
D01*
D01*
D01*
D01*
D01*
D01*
Y368002D01*
D01*
X271102Y368002D01*
X271102Y368002D01*
X270995Y367930D01*
X270872Y367893D01*
X270578Y367652D01*
X270262Y367440D01*
X270191Y367333D01*
X270091Y367252D01*
X269912Y366917D01*
X269701Y366600D01*
X269675Y366474D01*
X269615Y366361D01*
X269615Y366361D01*
X269615D01*
X269615D01*
Y366361D01*
D01*
D01*
X269615D01*
Y366361D01*
X269578Y365982D01*
X269503Y365609D01*
X269503Y365609D01*
D01*
D01*
D01*
X269506Y365597D01*
X269511Y365570D01*
Y365570D01*
D01*
D01*
D01*
D01*
D01*
X269516Y365545D01*
X269517Y365543D01*
X269527Y365489D01*
Y365489D01*
D01*
D01*
D01*
D01*
D01*
X269528Y365487D01*
X269528Y365487D01*
X269528Y365483D01*
X269528Y365483D01*
X269516Y365355D01*
X269516Y365355D01*
D01*
D01*
X269646Y364035D01*
X269659Y363905D01*
X269659Y363905D01*
X269733Y363661D01*
Y363661D01*
X269755Y363430D01*
X269758Y363407D01*
X269758Y363407D01*
X269758Y363407D01*
D01*
X270741Y360167D01*
Y360167D01*
X270741D01*
X270910Y359608D01*
X271031Y359383D01*
X271105Y359139D01*
X272976Y355637D01*
X273138Y355440D01*
X273258Y355215D01*
X275777Y352146D01*
X275974Y351984D01*
X276136Y351787D01*
X279205Y349268D01*
X279430Y349148D01*
X279627Y348986D01*
X283129Y347114D01*
X283373Y347040D01*
X283598Y346920D01*
X285691Y346285D01*
Y329360D01*
X282328Y328340D01*
X282103Y328219D01*
X281859Y328145D01*
X278357Y326274D01*
X278160Y326112D01*
X277935Y325992D01*
X274866Y323473D01*
X274704Y323276D01*
X274507Y323114D01*
X273829Y322289D01*
X261460D01*
X259494Y321898D01*
X257826Y320784D01*
X252906Y315864D01*
X251792Y314196D01*
X251401Y312230D01*
X251401Y312230D01*
X251401D01*
X251401Y312230D01*
X251401D01*
Y291499D01*
X249139Y289236D01*
X239900Y293063D01*
Y294840D01*
X239900D01*
Y316920D01*
X239900D01*
X238187Y318912D01*
D01*
X238186Y318913D01*
X239854Y320026D01*
X256364Y336536D01*
X257478Y338204D01*
X257869Y340170D01*
X257869Y340170D01*
X257869Y340170D01*
Y340170D01*
Y380187D01*
X273673Y395991D01*
X283263D01*
X283779Y394743D01*
D02*
G37*
G36*
X294781Y327014D02*
X298581Y325862D01*
X302082Y323990D01*
X305151Y321471D01*
X307670Y318402D01*
X309541Y314901D01*
X310694Y311101D01*
X310837Y309651D01*
X270830Y309650D01*
X270823Y309651D01*
X270966Y311101D01*
X272118Y314901D01*
X273990Y318402D01*
X276509Y321471D01*
X279578Y323990D01*
X283079Y325862D01*
X286879Y327014D01*
X290830Y327403D01*
X294781Y327014D01*
D02*
G37*
G36*
X446038Y426367D02*
X447434Y423754D01*
X449314Y421464D01*
X451604Y419584D01*
X454217Y418188D01*
X454506Y418100D01*
Y408100D01*
X454217Y408012D01*
X451604Y406616D01*
X449314Y404736D01*
X447434Y402446D01*
X446038Y399833D01*
X445178Y396998D01*
X444887Y394050D01*
X445178Y391102D01*
X446038Y388267D01*
X447434Y385654D01*
X449314Y383364D01*
X451604Y381484D01*
X454217Y380088D01*
X454506Y380000D01*
Y370000D01*
X454217Y369912D01*
X451604Y368516D01*
X449314Y366636D01*
X447434Y364346D01*
X446038Y361733D01*
X445178Y358898D01*
X444887Y355950D01*
X445178Y353002D01*
X446038Y350167D01*
X447434Y347554D01*
X449314Y345264D01*
X451604Y343384D01*
X453089Y342590D01*
X451577Y336555D01*
X441940Y333888D01*
X414940Y360887D01*
Y370700D01*
X414532D01*
X411318Y380169D01*
X412491Y381069D01*
X413860Y382853D01*
X414720Y384931D01*
X414846Y385890D01*
X406400D01*
Y388430D01*
X414846D01*
X414720Y389389D01*
X413860Y391467D01*
X413365Y392112D01*
X416510Y398489D01*
X418498Y401080D01*
X433359D01*
X434351Y401277D01*
X435191Y401839D01*
X435752Y402679D01*
X435949Y403670D01*
Y425548D01*
X445841Y427015D01*
X446038Y426367D01*
D02*
G37*
G36*
X141339Y382490D02*
X145166Y373251D01*
X139947Y366450D01*
X137130D01*
Y355410D01*
Y344370D01*
X141206D01*
X141206Y344370D01*
X141206Y344370D01*
X144650Y344370D01*
X148277Y340743D01*
Y316920D01*
X148277D01*
X144650D01*
X141206Y316920D01*
X141206Y316920D01*
X141206Y316920D01*
X137130D01*
Y305880D01*
X135860D01*
Y304610D01*
X127070D01*
Y294840D01*
X127070Y294840D01*
D01*
X121779Y289549D01*
X109150D01*
Y294840D01*
X109150D01*
Y316920D01*
X91570D01*
Y311019D01*
X68639D01*
Y332450D01*
X68248Y334417D01*
X67134Y336084D01*
X53645Y349572D01*
X53962Y350167D01*
X54822Y353002D01*
X55113Y355950D01*
X54822Y358898D01*
X53962Y361733D01*
X52566Y364346D01*
X50686Y366636D01*
X48396Y368516D01*
X45783Y369912D01*
X45494Y370000D01*
Y379708D01*
X54072Y384849D01*
X74657Y373846D01*
X74907Y373596D01*
X74853Y373190D01*
X75159Y370869D01*
X76055Y368707D01*
X77480Y366850D01*
X79337Y365425D01*
X81499Y364529D01*
X83820Y364223D01*
X84226Y364277D01*
X91570Y356933D01*
Y344370D01*
X109150D01*
Y366450D01*
X96587D01*
X92787Y373190D01*
X92481Y375511D01*
X91585Y377673D01*
X90259Y379403D01*
X90611Y380118D01*
X96918Y388338D01*
X141339Y382490D01*
D02*
G37*
G36*
X495922Y376645D02*
X486078Y374687D01*
X484964Y376354D01*
X473645Y387673D01*
X473962Y388267D01*
X474822Y391102D01*
X475113Y394050D01*
X474822Y396998D01*
X473962Y399833D01*
X472566Y402446D01*
X470686Y404736D01*
X468396Y406616D01*
X465783Y408012D01*
X465494Y408100D01*
Y418100D01*
X465783Y418188D01*
X468396Y419584D01*
X470686Y421464D01*
X472566Y423754D01*
X473962Y426367D01*
X474822Y429202D01*
X474988Y430880D01*
X460000D01*
Y432150D01*
X458730D01*
Y447138D01*
X457052Y446972D01*
X454217Y446112D01*
X451604Y444716D01*
X449314Y442836D01*
X447434Y440546D01*
X446038Y437933D01*
X445841Y437285D01*
X435949Y438752D01*
Y479870D01*
X435752Y480861D01*
X435191Y481701D01*
X434351Y482263D01*
X433359Y482460D01*
X384919D01*
X383928Y482263D01*
X383088Y481701D01*
X382527Y480861D01*
X382330Y479870D01*
Y403670D01*
X382330Y403670D01*
X382330Y403670D01*
X382527Y402679D01*
X372531Y396000D01*
X372500D01*
Y389230D01*
X383540D01*
Y387960D01*
X384810D01*
Y379920D01*
X392814D01*
X396321Y375026D01*
X397860Y370700D01*
X397860D01*
Y369000D01*
X394580D01*
Y369000D01*
X372500D01*
Y368639D01*
X349639D01*
X313514Y404764D01*
X311847Y405878D01*
X309880Y406269D01*
X273673D01*
X261805Y418137D01*
X264000Y429171D01*
X309389D01*
X310067Y428346D01*
X310264Y428184D01*
X310426Y427987D01*
X313495Y425468D01*
X313720Y425348D01*
X313917Y425186D01*
X317419Y423315D01*
X317663Y423241D01*
X317888Y423120D01*
X321687Y421968D01*
X321941Y421943D01*
X322185Y421869D01*
X326136Y421479D01*
X326390Y421505D01*
X326644Y421479D01*
X330595Y421869D01*
X330839Y421943D01*
X331093Y421968D01*
X334892Y423120D01*
X335117Y423241D01*
X335361Y423315D01*
X338863Y425186D01*
X339060Y425348D01*
X339285Y425468D01*
X342354Y427987D01*
X342516Y428184D01*
X342713Y428346D01*
X345232Y431415D01*
X345352Y431640D01*
X345514Y431837D01*
X347385Y435339D01*
X347459Y435583D01*
X347580Y435808D01*
X348732Y439607D01*
X348757Y439861D01*
X348831Y440105D01*
X348974Y441555D01*
X348959Y441707D01*
X348980Y441810D01*
X348923Y442096D01*
X348895Y442494D01*
X348879Y442525D01*
X348875Y442561D01*
X348804Y442694D01*
X348783Y442801D01*
X348616Y443050D01*
X348443Y443397D01*
X348416Y443421D01*
X348399Y443452D01*
X348286Y443545D01*
X348286Y443545D01*
X348286D01*
X348399Y445168D01*
X348578Y445503D01*
X348789Y445820D01*
X348815Y445946D01*
X348875Y446059D01*
X348912Y446438D01*
X348987Y446811D01*
X348987Y446811D01*
X348964Y446924D01*
X348962Y446937D01*
X348974Y447065D01*
X348831Y448515D01*
X348757Y448759D01*
X348732Y449013D01*
X347580Y452812D01*
X347459Y453037D01*
X347385Y453281D01*
X345514Y456783D01*
X345352Y456980D01*
X345232Y457205D01*
X342713Y460274D01*
X342516Y460436D01*
X342354Y460633D01*
X339285Y463152D01*
X339060Y463272D01*
X338863Y463434D01*
X335361Y465305D01*
X335117Y465379D01*
X334892Y465500D01*
X331093Y466652D01*
X330839Y466677D01*
X330595Y466751D01*
X326644Y467141D01*
X326390Y467116D01*
X326136Y467141D01*
X322185Y466751D01*
X321941Y466677D01*
X321687Y466652D01*
X317888Y465500D01*
X317663Y465379D01*
X317419Y465305D01*
X313917Y463434D01*
X313720Y463272D01*
X313495Y463152D01*
X310426Y460633D01*
X310264Y460436D01*
X310067Y460274D01*
X309390Y459449D01*
X262638D01*
X236044Y486044D01*
X235582Y486352D01*
X238485Y495922D01*
X495922D01*
Y376645D01*
D02*
G37*
G36*
X442136Y290816D02*
X443803Y289702D01*
X445770Y289311D01*
X471170D01*
X473136Y289702D01*
X474804Y290816D01*
X484964Y300976D01*
X486078Y302644D01*
X495922Y300685D01*
Y254078D01*
X395736D01*
X393785Y263886D01*
X397596Y265465D01*
X402782Y268643D01*
X407407Y272593D01*
X411357Y277218D01*
X414535Y282404D01*
X416862Y288023D01*
X418282Y293937D01*
X418660Y298730D01*
X380000D01*
Y301270D01*
X419257D01*
X427762Y305191D01*
X442136Y290816D01*
D02*
G37*
G36*
X106215Y486114D02*
X102404Y484535D01*
X97218Y481357D01*
X92593Y477407D01*
X88643Y472782D01*
X85465Y467597D01*
X83138Y461978D01*
X81718Y456063D01*
X81341Y451270D01*
X120000D01*
Y448730D01*
X81341D01*
X81718Y443937D01*
X83138Y438023D01*
X83917Y436140D01*
X79998Y433522D01*
X71179Y438236D01*
Y444310D01*
X70788Y446277D01*
X70418Y446830D01*
X69674Y447944D01*
X55704Y461914D01*
X54036Y463028D01*
X52070Y463419D01*
X20192D01*
X18947Y463171D01*
X18226Y463028D01*
X18226Y463028D01*
X18226Y463028D01*
X17313Y462417D01*
X16559Y461914D01*
X14146Y459501D01*
X14146Y459501D01*
X14146Y459501D01*
X13685Y458811D01*
X13648Y458755D01*
X10789Y459622D01*
X4078Y466333D01*
Y495922D01*
X104264D01*
X106215Y486114D01*
D02*
G37*
G36*
X330341Y464174D02*
X334141Y463022D01*
X337642Y461150D01*
X340711Y458631D01*
X343230Y455562D01*
X345102Y452061D01*
X346254Y448261D01*
X346397Y446811D01*
X306390Y446810D01*
X306383Y446811D01*
X306526Y448261D01*
X307679Y452061D01*
X309550Y455562D01*
X312069Y458631D01*
X315138Y461150D01*
X318639Y463022D01*
X322439Y464174D01*
X326390Y464563D01*
X330341Y464174D01*
D02*
G37*
G36*
X310837Y304649D02*
X310694Y303199D01*
X309541Y299400D01*
X307670Y295898D01*
X305151Y292829D01*
X302082Y290310D01*
X298581Y288438D01*
X294781Y287286D01*
X290830Y286897D01*
X286879Y287286D01*
X283079Y288438D01*
X279578Y290310D01*
X276509Y292829D01*
X273990Y295898D01*
X272118Y299400D01*
X270966Y303199D01*
X270823Y304649D01*
X310830Y304650D01*
X310837Y304649D01*
D02*
G37*
G36*
X346397Y441809D02*
X346254Y440359D01*
X345102Y436559D01*
X343230Y433058D01*
X340711Y429989D01*
X337642Y427470D01*
X334141Y425598D01*
X330341Y424446D01*
X326390Y424057D01*
X322439Y424446D01*
X318639Y425598D01*
X315138Y427470D01*
X312069Y429989D01*
X309550Y433058D01*
X307679Y436559D01*
X306526Y440359D01*
X306383Y441809D01*
X346390Y441810D01*
X346397Y441809D01*
D02*
G37*
%LPC*%
G36*
X134590Y316920D02*
X127070D01*
Y307150D01*
X134590D01*
Y316920D01*
D02*
G37*
G36*
X382270Y386690D02*
X372500D01*
Y379920D01*
X382270D01*
Y386690D01*
D02*
G37*
G36*
X461270Y447138D02*
Y433420D01*
X474988D01*
X474822Y435098D01*
X473962Y437933D01*
X472566Y440546D01*
X470686Y442836D01*
X468396Y444716D01*
X465783Y446112D01*
X462948Y446972D01*
X461270Y447138D01*
D02*
G37*
G36*
X134590Y354140D02*
X127070D01*
Y344370D01*
X134590D01*
Y354140D01*
D02*
G37*
G36*
Y366450D02*
X127070D01*
Y356680D01*
X134590D01*
Y366450D01*
D02*
G37*
%LPD*%
D12*
X292100Y108110D02*
D03*
Y128110D02*
D03*
X326390Y204310D02*
D03*
Y184310D02*
D03*
X290830Y47150D02*
D03*
Y67150D02*
D03*
X292100Y358110D02*
D03*
Y378110D02*
D03*
X326390Y454310D02*
D03*
Y434310D02*
D03*
X290830Y297150D02*
D03*
Y317150D02*
D03*
D13*
X450710Y67850D02*
X460000D01*
X406400Y112160D02*
X450710Y67850D01*
X460000D02*
X470000D01*
X48990Y182150D02*
X87630Y143510D01*
X30000Y182150D02*
X48990D01*
X33560Y105950D02*
X40000D01*
X196880Y85090D02*
X203200D01*
X195610Y105410D02*
Y107540D01*
Y55880D02*
Y83820D01*
X196880Y85090D01*
X195610Y92680D02*
Y105410D01*
X203200Y85090D02*
X232668D01*
X135860Y55880D02*
Y105410D01*
X195610Y92680D02*
X203200Y85090D01*
X232668D02*
X245190Y97612D01*
X159385Y143764D02*
X159640Y143510D01*
X290830Y67150D02*
Y106680D01*
X210820Y60960D02*
X223520Y73660D01*
X236220D01*
X252730Y90170D01*
X153416Y56642D02*
Y132080D01*
X159640Y143510D02*
X195610Y107540D01*
X120650Y143764D02*
X159385D01*
X87630Y143510D02*
X159640D01*
X20192Y208280D02*
X52070D01*
X66040Y182880D02*
X97616Y151304D01*
X66040Y182880D02*
Y194310D01*
X52070Y208280D02*
X66040Y194310D01*
X405060Y113500D02*
X406400Y112160D01*
X292100Y128110D02*
X316390D01*
X323850Y120650D01*
Y74930D02*
Y120650D01*
X261460Y67150D02*
X290830D01*
X256540Y62230D02*
X261460Y67150D01*
X256540Y39370D02*
Y62230D01*
X247650Y30480D02*
X256540Y39370D01*
X227330Y30480D02*
X247650D01*
X8890Y196120D02*
X17780Y205010D01*
Y205868D02*
X20192Y208280D01*
X17780Y205010D02*
Y205868D01*
X252730Y90170D02*
Y132315D01*
X271545Y151130D01*
X309880D01*
X210820Y49212D02*
Y60960D01*
X226060Y31750D02*
X227330Y30480D01*
X172212D02*
Y37846D01*
X153416Y56642D02*
X172212Y37846D01*
X180697Y19090D02*
X210820Y49212D01*
X186780Y11550D02*
X231110Y55880D01*
X309880Y151130D02*
X347510Y113500D01*
X405060D01*
X384340Y137160D02*
X406400D01*
X383540Y137960D02*
X384340Y137160D01*
X8890Y165160D02*
X30000Y144050D01*
Y147860D02*
X57910D01*
X8890Y165160D02*
Y196120D01*
X230905Y191770D02*
X271545Y151130D01*
X213360Y191770D02*
X230905D01*
X188722Y167386D02*
X189738Y166370D01*
X245190Y97612D02*
Y134540D01*
X188722Y167386D02*
Y209042D01*
X196850Y217170D01*
X460000Y144050D02*
X481330Y122720D01*
X471170Y44450D02*
X481330Y54610D01*
X445770Y44450D02*
X471170D01*
X397510Y92710D02*
X445770Y44450D01*
X356870Y92710D02*
X397510D01*
X336550Y72390D02*
X356870Y92710D01*
X336550Y54610D02*
Y72390D01*
X329090Y47150D02*
X336550Y54610D01*
X290830Y47150D02*
X329090D01*
X481330Y54610D02*
Y122720D01*
X147320Y30480D02*
X158710Y19090D01*
X180697D01*
X63500Y53340D02*
Y82450D01*
X40000Y105950D02*
X63500Y82450D01*
X66040Y55880D02*
X100360D01*
X150142Y11550D02*
X186780D01*
X127282Y34410D02*
X150142Y11550D01*
X40000Y60732D02*
Y67850D01*
Y60732D02*
X58782Y41950D01*
X121930D01*
X135860Y55880D01*
X17780Y60960D02*
Y90170D01*
X33560Y105950D01*
X17780Y60960D02*
X44330Y34410D01*
X127282D01*
X57910Y147860D02*
X100360Y105410D01*
X196850Y217170D02*
X231140D01*
X168910D02*
X184150Y232410D01*
X168910Y170180D02*
Y217170D01*
X219207Y105410D02*
X231110D01*
X97616Y151304D02*
X173313D01*
X219207Y105410D01*
X168910Y170180D02*
X196850Y142240D01*
X237490D01*
X213360Y166370D02*
X237490Y142240D01*
X245190Y134540D01*
X232410Y232410D02*
X260510Y204310D01*
X184150Y232410D02*
X232410D01*
X260510Y204310D02*
X326390D01*
X231140Y217170D02*
X264000Y184310D01*
X326390D01*
X450710Y317850D02*
X460000D01*
X406400Y362160D02*
X450710Y317850D01*
X460000D02*
X470000D01*
X48990Y432150D02*
X87630Y393510D01*
X30000Y432150D02*
X48990D01*
X33560Y355950D02*
X40000D01*
X196880Y335090D02*
X203200D01*
X195610Y355410D02*
Y357539D01*
Y305880D02*
Y333820D01*
X196880Y335090D01*
X195610Y342680D02*
Y355410D01*
X203200Y335090D02*
X232668D01*
X135860Y305880D02*
Y355410D01*
X195610Y342680D02*
X203200Y335090D01*
X232668D02*
X245190Y347612D01*
X159385Y393764D02*
X159640Y393510D01*
X290830Y317150D02*
Y356680D01*
X210820Y310960D02*
X223520Y323660D01*
X236220D01*
X252730Y340170D01*
X153416Y306642D02*
Y382080D01*
X159640Y393510D02*
X195610Y357539D01*
X120650Y393764D02*
X159385D01*
X87630Y393510D02*
X159640D01*
X20192Y458280D02*
X52070D01*
X66040Y432880D02*
X97616Y401304D01*
X66040Y432880D02*
Y444310D01*
X52070Y458280D02*
X66040Y444310D01*
X405060Y363500D02*
X406400Y362160D01*
X292100Y378110D02*
X316390D01*
X323850Y370650D01*
Y324930D02*
Y370650D01*
X261460Y317150D02*
X290830D01*
X256540Y312230D02*
X261460Y317150D01*
X256540Y289370D02*
Y312230D01*
X247650Y280480D02*
X256540Y289370D01*
X227330Y280480D02*
X247650D01*
X8890Y446120D02*
X17780Y455010D01*
Y455868D02*
X20192Y458280D01*
X17780Y455010D02*
Y455868D01*
X252730Y340170D02*
Y382315D01*
X271545Y401130D01*
X309880D01*
X210820Y299212D02*
Y310960D01*
X226060Y281750D02*
X227330Y280480D01*
X172212D02*
Y287846D01*
X153416Y306642D02*
X172212Y287846D01*
X180697Y269090D02*
X210820Y299212D01*
X186780Y261550D02*
X231110Y305880D01*
X309880Y401130D02*
X347510Y363500D01*
X405060D01*
X384340Y387160D02*
X406400D01*
X383540Y387960D02*
X384340Y387160D01*
X8890Y415160D02*
X30000Y394050D01*
Y397860D02*
X57910D01*
X8890Y415160D02*
Y446120D01*
X230905Y441770D02*
X271545Y401130D01*
X213360Y441770D02*
X230905D01*
X188722Y417386D02*
X189738Y416370D01*
X245190Y347612D02*
Y384540D01*
X188722Y417386D02*
Y459042D01*
X196850Y467170D01*
X460000Y394050D02*
X481330Y372720D01*
X471170Y294450D02*
X481330Y304610D01*
X445770Y294450D02*
X471170D01*
X397510Y342710D02*
X445770Y294450D01*
X356870Y342710D02*
X397510D01*
X336550Y322390D02*
X356870Y342710D01*
X336550Y304610D02*
Y322390D01*
X329090Y297150D02*
X336550Y304610D01*
X290830Y297150D02*
X329090D01*
X481330Y304610D02*
Y372720D01*
X147320Y280480D02*
X158710Y269090D01*
X180697D01*
X63500Y303340D02*
Y332450D01*
X40000Y355950D02*
X63500Y332450D01*
X66040Y305880D02*
X100360D01*
X150142Y261550D02*
X186780D01*
X127282Y284410D02*
X150142Y261550D01*
X40000Y310732D02*
Y317850D01*
Y310732D02*
X58782Y291950D01*
X121930D01*
X135860Y305880D01*
X17780Y310960D02*
Y340170D01*
X33560Y355950D01*
X17780Y310960D02*
X44330Y284410D01*
X127282D01*
X57910Y397860D02*
X100360Y355410D01*
X196850Y467170D02*
X231140D01*
X168910D02*
X184150Y482410D01*
X168910Y420180D02*
Y467170D01*
X219207Y355410D02*
X231110D01*
X97616Y401304D02*
X173313D01*
X219207Y355410D01*
X168910Y420180D02*
X196850Y392240D01*
X237490D01*
X213360Y416370D02*
X237490Y392240D01*
X245190Y384540D01*
X232410Y482410D02*
X260510Y454310D01*
X184150Y482410D02*
X232410D01*
X260510Y454310D02*
X326390D01*
X231140Y467170D02*
X264000Y434310D01*
X326390D01*
D14*
X380000Y50000D02*
D03*
X120000Y200000D02*
D03*
X380000Y300000D02*
D03*
X120000Y450000D02*
D03*
D15*
X406400Y112160D02*
D03*
Y362160D02*
D03*
D16*
Y137160D02*
D03*
Y387160D02*
D03*
D17*
X460000Y67850D02*
D03*
X40000Y182150D02*
D03*
X460000Y317850D02*
D03*
X40000Y432150D02*
D03*
D18*
X460000Y105950D02*
D03*
Y144050D02*
D03*
Y182150D02*
D03*
X40000Y144050D02*
D03*
Y105950D02*
D03*
Y67850D02*
D03*
X460000Y355950D02*
D03*
Y394050D02*
D03*
Y432150D02*
D03*
X40000Y394050D02*
D03*
Y355950D02*
D03*
Y317850D02*
D03*
D19*
X188722Y167386D02*
D03*
X147320Y30480D02*
D03*
X172212D02*
D03*
X83820Y123190D02*
D03*
X323850Y74930D02*
D03*
X153416Y132080D02*
D03*
X226060Y31750D02*
D03*
X63500Y53340D02*
D03*
X188722Y417386D02*
D03*
X147320Y280480D02*
D03*
X172212D02*
D03*
X83820Y373190D02*
D03*
X323850Y324930D02*
D03*
X153416Y382080D02*
D03*
X226060Y281750D02*
D03*
X63500Y303340D02*
D03*
D20*
X231110Y105410D02*
D03*
X195610D02*
D03*
X135860D02*
D03*
X100360D02*
D03*
X231110Y55880D02*
D03*
X195610D02*
D03*
X135860D02*
D03*
X100360D02*
D03*
X231110Y355410D02*
D03*
X195610D02*
D03*
X135860D02*
D03*
X100360D02*
D03*
X231110Y305880D02*
D03*
X195610D02*
D03*
X135860D02*
D03*
X100360D02*
D03*
D21*
X383540Y110960D02*
D03*
Y137960D02*
D03*
Y360960D02*
D03*
Y387960D02*
D03*
D22*
X213360Y166370D02*
D03*
Y191770D02*
D03*
Y217170D02*
D03*
Y416370D02*
D03*
Y441770D02*
D03*
Y467170D02*
D03*
D23*
X409139Y191770D02*
D03*
Y441770D02*
D03*
M02*
