%FSLAX44Y44*%
%MOMM*%
G71*
G01*
G75*
G04 Layer_Color=32896*
%ADD10R,1.7000X1.2500*%
%ADD11O,0.7000X2.5000*%
%ADD12C,1.5000*%
%ADD13C,0.5000*%
%ADD14C,7.2200*%
%ADD15R,1.2000X1.2000*%
%ADD16C,1.2000*%
%ADD17R,2.5000X2.5000*%
%ADD18C,2.5000*%
%ADD19C,1.2700*%
%ADD20R,1.2500X1.7000*%
%ADD21R,1.7000X1.1000*%
%ADD22R,2.0320X1.7780*%
%ADD23R,4.8440X7.6200*%
%ADD24C,0.2000*%
%ADD25C,0.2500*%
%ADD26C,0.2540*%
%ADD27R,1.9032X1.4532*%
%ADD28O,0.9032X2.7032*%
%ADD29R,1.4032X1.4032*%
%ADD30C,1.4032*%
%ADD31R,2.7032X2.7032*%
%ADD32C,2.7032*%
%ADD33C,1.4732*%
%ADD34R,1.4532X1.9032*%
%ADD35R,1.9032X1.3032*%
%ADD36R,2.2352X1.9812*%
%ADD37R,5.0472X7.8232*%
D24*
X244860Y89410D02*
Y105410D01*
X181860Y89410D02*
X244860D01*
X181860D02*
Y121410D01*
X244860D01*
Y105410D02*
Y121410D01*
X149610Y89410D02*
Y105410D01*
X86610Y89410D02*
X149610D01*
X86610D02*
Y121410D01*
X149610D01*
Y105410D02*
Y121410D01*
X244860Y39880D02*
Y55880D01*
X181860Y39880D02*
X244860D01*
X181860D02*
Y71880D01*
X244860D01*
Y55880D02*
Y71880D01*
X149610Y39880D02*
Y55880D01*
X86610Y39880D02*
X149610D01*
X86610D02*
Y71880D01*
X149610D01*
Y55880D02*
Y71880D01*
X391040Y120460D02*
Y128460D01*
X376040Y120460D02*
Y128460D01*
X244860Y339410D02*
Y355410D01*
X181860Y339410D02*
X244860D01*
X181860D02*
Y371410D01*
X244860D01*
Y355410D02*
Y371410D01*
X149610Y339410D02*
Y355410D01*
X86610Y339410D02*
X149610D01*
X86610D02*
Y371410D01*
X149610D01*
Y355410D02*
Y371410D01*
X244860Y289880D02*
Y305880D01*
X181860Y289880D02*
X244860D01*
X181860D02*
Y321880D01*
X244860D01*
Y305880D02*
Y321880D01*
X149610Y289880D02*
Y305880D01*
X86610Y289880D02*
X149610D01*
X86610D02*
Y321880D01*
X149610D01*
Y305880D02*
Y321880D01*
X391040Y370460D02*
Y378460D01*
X376040Y370460D02*
Y378460D01*
D26*
X314100Y118110D02*
G03*
X314100Y118110I-22000J0D01*
G01*
X348390Y194310D02*
G03*
X348390Y194310I-22000J0D01*
G01*
X312830Y57150D02*
G03*
X312830Y57150I-22000J0D01*
G01*
X403970Y191770D02*
G03*
X403970Y191770I-19050J0D01*
G01*
X280360Y153770D02*
Y229870D01*
X356360Y153670D02*
Y229870D01*
X350360Y153670D02*
X356360D01*
X412860D02*
Y229870D01*
X280360D02*
X412860D01*
X280360Y153670D02*
X412860D01*
Y193370D01*
X263846Y145491D02*
X265512Y147157D01*
X268844D01*
X270510Y145491D01*
Y138826D01*
X268844Y137160D01*
X265512D01*
X263846Y138826D01*
Y142158D01*
X267178D01*
X260513Y137160D02*
Y147157D01*
X253849Y137160D01*
Y147157D01*
X250516D02*
Y137160D01*
X245518D01*
X243852Y138826D01*
Y145491D01*
X245518Y147157D01*
X250516D01*
X271780Y87467D02*
Y80802D01*
X268448Y77470D01*
X265116Y80802D01*
Y87467D01*
X261783Y82468D02*
X255119D01*
X130810Y16002D02*
Y31237D01*
X123193D01*
X120653Y28698D01*
Y23619D01*
X123193Y21080D01*
X130810D01*
X125732D02*
X120653Y16002D01*
X107957D02*
Y31237D01*
X115575Y23619D01*
X105418D01*
X226060Y16002D02*
Y31237D01*
X218442D01*
X215903Y28698D01*
Y23619D01*
X218442Y21080D01*
X226060D01*
X220982D02*
X215903Y16002D01*
X210825Y28698D02*
X208286Y31237D01*
X203207D01*
X200668Y28698D01*
Y26159D01*
X203207Y23619D01*
X205747D01*
X203207D01*
X200668Y21080D01*
Y18541D01*
X203207Y16002D01*
X208286D01*
X210825Y18541D01*
X130810Y130048D02*
Y145283D01*
X123193D01*
X120653Y142744D01*
Y137666D01*
X123193Y135126D01*
X130810D01*
X125732D02*
X120653Y130048D01*
X105418D02*
X115575D01*
X105418Y140205D01*
Y142744D01*
X107957Y145283D01*
X113036D01*
X115575Y142744D01*
X223520Y130048D02*
Y145283D01*
X215903D01*
X213363Y142744D01*
Y137666D01*
X215903Y135126D01*
X223520D01*
X218442D02*
X213363Y130048D01*
X208285D02*
X203207D01*
X205746D01*
Y145283D01*
X208285Y142744D01*
X368300Y133350D02*
X364968D01*
X366634D01*
Y143347D01*
X368300Y141681D01*
X359969D02*
X358303Y143347D01*
X354971D01*
X353305Y141681D01*
Y135016D01*
X354971Y133350D01*
X358303D01*
X359969Y135016D01*
Y141681D01*
X349973D02*
X348306Y143347D01*
X344974D01*
X343308Y141681D01*
Y135016D01*
X344974Y133350D01*
X348306D01*
X349973Y135016D01*
Y141681D01*
X339976Y133350D02*
Y140014D01*
X334977D01*
X333311Y138348D01*
Y133350D01*
X298450Y212090D02*
X288453D01*
X298450Y205425D01*
X288453D01*
Y197095D02*
Y200427D01*
X290119Y202093D01*
X296784D01*
X298450Y200427D01*
Y197095D01*
X296784Y195429D01*
X290119D01*
X288453Y197095D01*
X296784Y175435D02*
X290119D01*
X288453Y177101D01*
Y180434D01*
X290119Y182100D01*
X296784D01*
X298450Y180434D01*
Y177101D01*
X295118Y178767D02*
X298450Y175435D01*
Y177101D02*
X296784Y175435D01*
X298450Y172103D02*
Y168771D01*
Y170437D01*
X288453D01*
X290119Y172103D01*
X255273Y220979D02*
Y231136D01*
X257812Y233675D01*
X262891D01*
X265430Y231136D01*
Y220979D01*
X262891Y218440D01*
X257812D01*
X260352Y223518D02*
X255273Y218440D01*
X257812D02*
X255273Y220979D01*
X250195Y218440D02*
X245117D01*
X247656D01*
Y233675D01*
X250195Y231136D01*
X491327Y121838D02*
Y118506D01*
X489661Y116840D01*
X482996D01*
X481330Y118506D01*
Y121838D01*
X482996Y123504D01*
X489661D01*
X491327Y121838D01*
Y126837D02*
X482996D01*
X481330Y128503D01*
Y131835D01*
X482996Y133501D01*
X491327D01*
Y136834D02*
Y143498D01*
Y140166D01*
X481330D01*
X438150Y149048D02*
Y142384D01*
X434818Y139052D01*
X431485Y142384D01*
Y149048D01*
X428153Y144050D02*
X421489D01*
X438150Y110948D02*
Y104284D01*
X434818Y100952D01*
X431485Y104284D01*
Y110948D01*
X428153Y105950D02*
X421489D01*
X424821Y109282D02*
Y102618D01*
X472496Y25400D02*
X469164D01*
X470830D01*
Y35397D01*
X472496Y33731D01*
X457501Y25400D02*
X464165D01*
X457501Y32064D01*
Y33731D01*
X459167Y35397D01*
X462499D01*
X464165Y33731D01*
X454169Y32064D02*
X450836Y25400D01*
X447504Y32064D01*
X45831Y33731D02*
X47498Y35397D01*
X50830D01*
X52496Y33731D01*
Y27066D01*
X50830Y25400D01*
X47498D01*
X45831Y27066D01*
Y30398D01*
X49164D01*
X42499Y25400D02*
Y35397D01*
X35835Y25400D01*
Y35397D01*
X32502D02*
Y25400D01*
X27504D01*
X25838Y27066D01*
Y33731D01*
X27504Y35397D01*
X32502D01*
X75489Y112867D02*
Y106202D01*
X72157Y102870D01*
X68825Y106202D01*
Y112867D01*
X65493Y107868D02*
X58828D01*
X75489Y150967D02*
Y144302D01*
X72157Y140970D01*
X68825Y144302D01*
Y150967D01*
X65493Y145968D02*
X58828D01*
X62160Y149301D02*
Y142636D01*
X53329Y218277D02*
Y211612D01*
X49997Y208280D01*
X46665Y211612D01*
Y218277D01*
X43332Y208280D02*
Y218277D01*
X38334D01*
X36668Y216611D01*
Y213278D01*
X38334Y211612D01*
X43332D01*
X40000D02*
X36668Y208280D01*
X26671Y218277D02*
X33335D01*
Y208280D01*
X26671D01*
X33335Y213278D02*
X30003D01*
X16674Y218277D02*
X23339D01*
Y213278D01*
X20006D01*
X23339D01*
Y208280D01*
X466665Y216611D02*
X468331Y218277D01*
X471663D01*
X473329Y216611D01*
Y209946D01*
X471663Y208280D01*
X468331D01*
X466665Y209946D01*
Y213278D01*
X469997D01*
X463332Y208280D02*
Y218277D01*
X456668Y208280D01*
Y218277D01*
X453335D02*
Y208280D01*
X448337D01*
X446671Y209946D01*
Y216611D01*
X448337Y218277D01*
X453335D01*
X9053Y133350D02*
Y130018D01*
Y131684D01*
X19050D01*
Y133350D01*
Y130018D01*
Y125019D02*
X9053D01*
X19050Y118355D01*
X9053D01*
X314100Y368110D02*
G03*
X314100Y368110I-22000J0D01*
G01*
X348390Y444310D02*
G03*
X348390Y444310I-22000J0D01*
G01*
X312830Y307150D02*
G03*
X312830Y307150I-22000J0D01*
G01*
X403970Y441770D02*
G03*
X403970Y441770I-19050J0D01*
G01*
X280360Y403770D02*
Y479870D01*
X356360Y403670D02*
Y479870D01*
X350360Y403670D02*
X356360D01*
X412860D02*
Y479870D01*
X280360D02*
X412860D01*
X280360Y403670D02*
X412860D01*
Y443370D01*
X263846Y395491D02*
X265512Y397157D01*
X268844D01*
X270510Y395491D01*
Y388826D01*
X268844Y387160D01*
X265512D01*
X263846Y388826D01*
Y392158D01*
X267178D01*
X260513Y387160D02*
Y397157D01*
X253849Y387160D01*
Y397157D01*
X250516D02*
Y387160D01*
X245518D01*
X243852Y388826D01*
Y395491D01*
X245518Y397157D01*
X250516D01*
X271780Y337467D02*
Y330802D01*
X268448Y327470D01*
X265116Y330802D01*
Y337467D01*
X261783Y332468D02*
X255119D01*
X130810Y266002D02*
Y281237D01*
X123193D01*
X120653Y278698D01*
Y273619D01*
X123193Y271080D01*
X130810D01*
X125732D02*
X120653Y266002D01*
X107957D02*
Y281237D01*
X115575Y273619D01*
X105418D01*
X226060Y266002D02*
Y281237D01*
X218442D01*
X215903Y278698D01*
Y273619D01*
X218442Y271080D01*
X226060D01*
X220982D02*
X215903Y266002D01*
X210825Y278698D02*
X208286Y281237D01*
X203207D01*
X200668Y278698D01*
Y276159D01*
X203207Y273619D01*
X205747D01*
X203207D01*
X200668Y271080D01*
Y268541D01*
X203207Y266002D01*
X208286D01*
X210825Y268541D01*
X130810Y380048D02*
Y395283D01*
X123193D01*
X120653Y392744D01*
Y387665D01*
X123193Y385126D01*
X130810D01*
X125732D02*
X120653Y380048D01*
X105418D02*
X115575D01*
X105418Y390205D01*
Y392744D01*
X107957Y395283D01*
X113036D01*
X115575Y392744D01*
X223520Y380048D02*
Y395283D01*
X215903D01*
X213363Y392744D01*
Y387665D01*
X215903Y385126D01*
X223520D01*
X218442D02*
X213363Y380048D01*
X208285D02*
X203207D01*
X205746D01*
Y395283D01*
X208285Y392744D01*
X368300Y383350D02*
X364968D01*
X366634D01*
Y393347D01*
X368300Y391681D01*
X359969D02*
X358303Y393347D01*
X354971D01*
X353305Y391681D01*
Y385016D01*
X354971Y383350D01*
X358303D01*
X359969Y385016D01*
Y391681D01*
X349973D02*
X348306Y393347D01*
X344974D01*
X343308Y391681D01*
Y385016D01*
X344974Y383350D01*
X348306D01*
X349973Y385016D01*
Y391681D01*
X339976Y383350D02*
Y390014D01*
X334977D01*
X333311Y388348D01*
Y383350D01*
X298450Y462090D02*
X288453D01*
X298450Y455425D01*
X288453D01*
Y447095D02*
Y450427D01*
X290119Y452093D01*
X296784D01*
X298450Y450427D01*
Y447095D01*
X296784Y445429D01*
X290119D01*
X288453Y447095D01*
X296784Y425435D02*
X290119D01*
X288453Y427101D01*
Y430434D01*
X290119Y432100D01*
X296784D01*
X298450Y430434D01*
Y427101D01*
X295118Y428767D02*
X298450Y425435D01*
Y427101D02*
X296784Y425435D01*
X298450Y422103D02*
Y418771D01*
Y420437D01*
X288453D01*
X290119Y422103D01*
X255273Y470979D02*
Y481136D01*
X257812Y483675D01*
X262891D01*
X265430Y481136D01*
Y470979D01*
X262891Y468440D01*
X257812D01*
X260352Y473518D02*
X255273Y468440D01*
X257812D02*
X255273Y470979D01*
X250195Y468440D02*
X245117D01*
X247656D01*
Y483675D01*
X250195Y481136D01*
X491327Y371838D02*
Y368506D01*
X489661Y366840D01*
X482996D01*
X481330Y368506D01*
Y371838D01*
X482996Y373504D01*
X489661D01*
X491327Y371838D01*
Y376837D02*
X482996D01*
X481330Y378503D01*
Y381835D01*
X482996Y383501D01*
X491327D01*
Y386834D02*
Y393498D01*
Y390166D01*
X481330D01*
X438150Y399048D02*
Y392384D01*
X434818Y389052D01*
X431485Y392384D01*
Y399048D01*
X428153Y394050D02*
X421489D01*
X438150Y360948D02*
Y354284D01*
X434818Y350952D01*
X431485Y354284D01*
Y360948D01*
X428153Y355950D02*
X421489D01*
X424821Y359282D02*
Y352618D01*
X472496Y275400D02*
X469164D01*
X470830D01*
Y285397D01*
X472496Y283731D01*
X457501Y275400D02*
X464165D01*
X457501Y282064D01*
Y283731D01*
X459167Y285397D01*
X462499D01*
X464165Y283731D01*
X454169Y282064D02*
X450836Y275400D01*
X447504Y282064D01*
X45831Y283731D02*
X47498Y285397D01*
X50830D01*
X52496Y283731D01*
Y277066D01*
X50830Y275400D01*
X47498D01*
X45831Y277066D01*
Y280398D01*
X49164D01*
X42499Y275400D02*
Y285397D01*
X35835Y275400D01*
Y285397D01*
X32502D02*
Y275400D01*
X27504D01*
X25838Y277066D01*
Y283731D01*
X27504Y285397D01*
X32502D01*
X75489Y362867D02*
Y356202D01*
X72157Y352870D01*
X68825Y356202D01*
Y362867D01*
X65493Y357868D02*
X58828D01*
X75489Y400967D02*
Y394302D01*
X72157Y390970D01*
X68825Y394302D01*
Y400967D01*
X65493Y395968D02*
X58828D01*
X62160Y399301D02*
Y392636D01*
X53329Y468277D02*
Y461612D01*
X49997Y458280D01*
X46665Y461612D01*
Y468277D01*
X43332Y458280D02*
Y468277D01*
X38334D01*
X36668Y466611D01*
Y463278D01*
X38334Y461612D01*
X43332D01*
X40000D02*
X36668Y458280D01*
X26671Y468277D02*
X33335D01*
Y458280D01*
X26671D01*
X33335Y463278D02*
X30003D01*
X16674Y468277D02*
X23339D01*
Y463278D01*
X20006D01*
X23339D01*
Y458280D01*
X466665Y466611D02*
X468331Y468277D01*
X471663D01*
X473329Y466611D01*
Y459946D01*
X471663Y458280D01*
X468331D01*
X466665Y459946D01*
Y463278D01*
X469997D01*
X463332Y458280D02*
Y468277D01*
X456668Y458280D01*
Y468277D01*
X453335D02*
Y458280D01*
X448337D01*
X446671Y459946D01*
Y466611D01*
X448337Y468277D01*
X453335D01*
X9053Y383350D02*
Y380018D01*
Y381684D01*
X19050D01*
Y383350D01*
Y380018D01*
Y375019D02*
X9053D01*
X19050Y368355D01*
X9053D01*
M02*
