%FSLAX44Y44*%
%MOMM*%
G71*
G01*
G75*
G04 Layer_Physical_Order=1*
G04 Layer_Color=255*
%ADD10R,1.7000X1.2500*%
%ADD11O,0.7000X2.5000*%
%ADD12C,1.5000*%
%ADD13C,0.5000*%
%ADD14C,7.2200*%
%ADD15R,1.2000X1.2000*%
%ADD16C,1.2000*%
%ADD17R,2.5000X2.5000*%
%ADD18C,2.5000*%
%ADD19C,1.2700*%
G36*
X280007Y201309D02*
X279864Y199859D01*
X278711Y196059D01*
X276840Y192558D01*
X274321Y189489D01*
X271252Y186970D01*
X267750Y185098D01*
X263951Y183946D01*
X260000Y183557D01*
X256049Y183946D01*
X252249Y185098D01*
X248748Y186970D01*
X245679Y189489D01*
X243160Y192558D01*
X241289Y196059D01*
X240136Y199859D01*
X239993Y201309D01*
X240000Y201310D01*
X280007Y201309D01*
D02*
G37*
G36*
X340007D02*
X339864Y199859D01*
X338712Y196059D01*
X336840Y192558D01*
X334321Y189489D01*
X331252Y186970D01*
X327751Y185098D01*
X323951Y183946D01*
X320000Y183557D01*
X316049Y183946D01*
X312249Y185098D01*
X308748Y186970D01*
X305679Y189489D01*
X303160Y192558D01*
X301288Y196059D01*
X300136Y199859D01*
X299993Y201309D01*
X300000Y201310D01*
X340007Y201309D01*
D02*
G37*
G36*
X220007D02*
X219864Y199859D01*
X218711Y196059D01*
X216840Y192558D01*
X214321Y189489D01*
X211252Y186970D01*
X207751Y185098D01*
X203951Y183946D01*
X200000Y183557D01*
X196049Y183946D01*
X192250Y185098D01*
X188748Y186970D01*
X185679Y189489D01*
X183160Y192558D01*
X181289Y196059D01*
X180136Y199859D01*
X179993Y201309D01*
X180000Y201310D01*
X220007Y201309D01*
D02*
G37*
G36*
X68756Y154481D02*
X70423Y153367D01*
X72390Y152976D01*
X153979D01*
X154744Y151131D01*
X153518Y141823D01*
X151095Y140741D01*
D01*
X148933Y139845D01*
X147076Y138420D01*
X145651Y136563D01*
X144755Y134401D01*
X144449Y132080D01*
X144755Y129759D01*
X145651Y127597D01*
X147076Y125740D01*
X148933Y124315D01*
X151095Y123419D01*
X154330Y119677D01*
D01*
X154331D01*
X153862Y117320D01*
Y99818D01*
D01*
D01*
D01*
D01*
X153862D01*
D01*
Y99818D01*
X153862Y99818D01*
X153862Y99320D01*
X153862Y99320D01*
X153895Y99153D01*
X153895Y99153D01*
X154104Y98103D01*
Y98103D01*
D01*
Y98103D01*
X154104D01*
X154278Y97228D01*
X154330Y96963D01*
D01*
D01*
D01*
X154331Y96963D01*
X154800Y96261D01*
X155020Y95931D01*
X155020D01*
D01*
D01*
D01*
D01*
D01*
X155020D01*
X155665Y94965D01*
X155666D01*
X156697Y94276D01*
Y94276D01*
X156697D01*
X156697D01*
Y94276D01*
X156697D01*
D01*
D01*
X157663Y93630D01*
X157663Y93630D01*
X158448Y93474D01*
Y93474D01*
X158448Y93474D01*
X160020Y93161D01*
X160020Y93161D01*
D01*
X160020Y93161D01*
D01*
D01*
D01*
X160410Y93239D01*
X161592Y93474D01*
X161592D01*
D01*
D01*
D01*
X161592D01*
D01*
D01*
X161700Y93496D01*
X162377Y93630D01*
X162377Y93630D01*
X163343Y94276D01*
D01*
Y94276D01*
X163343D01*
D01*
D01*
D01*
X164375Y94965D01*
X164375D01*
X164375D01*
X170274Y93690D01*
X170363Y93630D01*
X170363Y93630D01*
X171148Y93474D01*
Y93474D01*
X171148Y93474D01*
X172719Y93162D01*
X172720Y93161D01*
X172720Y93161D01*
X174292Y93474D01*
X174292Y93474D01*
Y93474D01*
X175077Y93630D01*
X175077Y93630D01*
X176043Y94276D01*
X176043Y94276D01*
Y94276D01*
X177075Y94965D01*
X177075D01*
X177075Y94965D01*
Y94965D01*
X177075D01*
X177075D01*
X182974Y93690D01*
X183063Y93630D01*
X183063Y93630D01*
X183848Y93474D01*
Y93474D01*
X183848Y93474D01*
X185418Y93162D01*
X185420Y93161D01*
X185420Y93161D01*
X186992Y93474D01*
X186992Y93474D01*
Y93474D01*
X187777Y93630D01*
X187777Y93630D01*
X188743Y94276D01*
X188743Y94276D01*
Y94276D01*
X189774Y94965D01*
X189775D01*
X189775Y94965D01*
Y94965D01*
X189775D01*
X189775D01*
X195674Y93690D01*
X195763Y93630D01*
X195763Y93630D01*
X196548Y93474D01*
Y93474D01*
X196548Y93474D01*
X198118Y93162D01*
X198120Y93161D01*
X198120Y93161D01*
X199692Y93474D01*
X199692Y93474D01*
Y93474D01*
X200477Y93630D01*
X200477Y93630D01*
X201443Y94276D01*
X201443Y94276D01*
Y94276D01*
X202474Y94965D01*
X202475D01*
X202475Y94965D01*
Y94965D01*
X202475D01*
X202475D01*
X208374Y93690D01*
X208463Y93630D01*
X208463Y93630D01*
X209248Y93474D01*
Y93474D01*
X209248Y93474D01*
X209550Y93414D01*
Y108320D01*
X212090D01*
Y93414D01*
X212392Y93474D01*
X212392Y93474D01*
Y93474D01*
X213177Y93630D01*
X213177Y93630D01*
X214143Y94276D01*
X214143Y94276D01*
Y94276D01*
X215175Y94965D01*
X215175D01*
X215175Y94965D01*
Y94965D01*
X215175D01*
X215175D01*
X221074Y93690D01*
X221163Y93630D01*
X221163Y93630D01*
X221948Y93474D01*
Y93474D01*
X221948Y93474D01*
X223519Y93162D01*
X223520Y93161D01*
X223520Y93161D01*
X223591Y93175D01*
X225092Y93474D01*
X225092Y93474D01*
Y93474D01*
X225877Y93630D01*
X225877Y93630D01*
X226843Y94276D01*
X226843Y94276D01*
Y94276D01*
X227875Y94965D01*
X227875D01*
X227875Y94965D01*
X227875Y94965D01*
X227875Y94965D01*
X227875D01*
D01*
X228014Y95174D01*
X228520Y95931D01*
X229265Y96921D01*
X231865Y94965D01*
X231865Y94965D01*
Y94965D01*
X233863Y93630D01*
X235613Y93282D01*
X243519Y85377D01*
X244766Y84544D01*
X245186Y84263D01*
X245186D01*
X245186Y84263D01*
X245186Y84263D01*
X245699Y84161D01*
X247153Y83871D01*
D01*
D01*
X246993Y81207D01*
X241579Y74010D01*
X238577D01*
X238577D01*
X238577Y74010D01*
X237792Y74166D01*
Y74166D01*
X237792Y74166D01*
X236220Y74479D01*
D01*
D01*
D01*
D01*
X234648Y74166D01*
X234648Y74166D01*
Y74166D01*
X233863Y74010D01*
X233863Y74010D01*
X232897Y73364D01*
X232897Y73364D01*
Y73364D01*
X231866Y72675D01*
X231865D01*
X231865D01*
X231865D01*
X231865D01*
Y72675D01*
X231726Y72466D01*
X231220Y71709D01*
X230475Y70719D01*
X227894Y72660D01*
X227894D01*
X227875Y72675D01*
D01*
X227875Y72675D01*
X227875D01*
X226843Y73364D01*
X226843D01*
Y73364D01*
X226843D01*
D01*
X226843D01*
Y73364D01*
X225877Y74010D01*
X225877Y74010D01*
X225092Y74166D01*
Y74166D01*
X225092Y74166D01*
X223520Y74479D01*
D01*
D01*
D01*
D01*
X221948Y74166D01*
X221948Y74166D01*
Y74166D01*
X221163Y74010D01*
X221163Y74010D01*
X220197Y73364D01*
X220197Y73364D01*
Y73364D01*
X219165Y72675D01*
X219165D01*
X219165D01*
X219165D01*
X219165D01*
Y72675D01*
X219026Y72466D01*
X218520Y71709D01*
X217775Y70719D01*
X215194Y72660D01*
X215194D01*
X215175Y72675D01*
D01*
X215175Y72675D01*
X215175D01*
X214143Y73364D01*
X214143D01*
Y73364D01*
X214143D01*
D01*
X214143D01*
Y73364D01*
X213177Y74010D01*
X213177Y74010D01*
X212392Y74166D01*
Y74166D01*
X212392Y74166D01*
X210820Y74479D01*
D01*
D01*
D01*
D01*
X209248Y74166D01*
X209248Y74166D01*
Y74166D01*
X208463Y74010D01*
X208463Y74010D01*
X207497Y73364D01*
X207497Y73364D01*
Y73364D01*
X206465Y72675D01*
X206465D01*
X206465D01*
X206465D01*
X206465D01*
Y72675D01*
X206326Y72466D01*
X205820Y71709D01*
X205075Y70719D01*
X202494Y72660D01*
X202494D01*
X202475Y72675D01*
D01*
X202475Y72675D01*
X202474D01*
X201443Y73364D01*
X201443D01*
Y73364D01*
X201443D01*
D01*
X201443D01*
Y73364D01*
X200477Y74010D01*
X200477Y74010D01*
X199692Y74166D01*
Y74166D01*
X199692Y74166D01*
X198191Y74465D01*
X198120Y74479D01*
D01*
D01*
D01*
D01*
D01*
D01*
X196548Y74166D01*
X196548Y74166D01*
Y74166D01*
X195763Y74010D01*
X195763Y74010D01*
X194797Y73364D01*
X194797Y73364D01*
Y73364D01*
X193766Y72675D01*
X193765D01*
X193765D01*
X193765D01*
X193765D01*
Y72675D01*
X193626Y72466D01*
X193120Y71709D01*
X192375Y70719D01*
X189775Y72675D01*
X189775Y72675D01*
X189775D01*
X188743Y73364D01*
Y73364D01*
X188743Y73364D01*
X187777Y74010D01*
X187777Y74010D01*
X186992Y74166D01*
Y74166D01*
X186992Y74166D01*
X186690Y74226D01*
Y59320D01*
X184150D01*
Y74226D01*
X183848Y74166D01*
X183848Y74166D01*
Y74166D01*
X183063Y74010D01*
X183063Y74010D01*
X182097Y73364D01*
X182097Y73364D01*
Y73364D01*
X181065Y72675D01*
X181065D01*
X181065Y72675D01*
X178465Y70719D01*
X177720Y71709D01*
X177478Y72071D01*
X177075Y72675D01*
Y72675D01*
D01*
X177075D01*
D01*
X177075Y72675D01*
X176043Y73364D01*
X176043D01*
Y73364D01*
X176043D01*
D01*
X176043D01*
Y73364D01*
X175077Y74010D01*
X175077Y74010D01*
X174292Y74166D01*
Y74166D01*
X174292Y74166D01*
X172720Y74479D01*
D01*
D01*
D01*
D01*
D01*
D01*
X172649Y74465D01*
X171148Y74166D01*
X171148Y74166D01*
Y74166D01*
X170363Y74010D01*
X170363Y74010D01*
X169397Y73364D01*
D01*
D01*
D01*
X169397D01*
Y73364D01*
D01*
D01*
Y73364D01*
X169397D01*
X168365Y72675D01*
X168365D01*
X167962Y72071D01*
X167720Y71709D01*
X166975Y70719D01*
X164394Y72660D01*
X164394D01*
X164375Y72675D01*
D01*
X164375Y72675D01*
X164375D01*
X163343Y73364D01*
D01*
D01*
D01*
D01*
Y73364D01*
X163343D01*
D01*
D01*
X162377Y74010D01*
X162377Y74010D01*
X161700Y74144D01*
X161592Y74166D01*
D01*
X161592D01*
D01*
D01*
D01*
D01*
X161592D01*
X160745Y74334D01*
X160104Y74462D01*
D01*
X160020Y74479D01*
D01*
D01*
D01*
D01*
D01*
D01*
X160020Y74479D01*
X158448Y74166D01*
X158448Y74166D01*
Y74166D01*
X157663Y74010D01*
X157663Y74010D01*
X156697Y73364D01*
X156697Y73364D01*
Y73364D01*
X155666Y72675D01*
X155665D01*
Y72675D01*
X155020Y71709D01*
D01*
X155020D01*
D01*
D01*
Y71709D01*
X155020D01*
X155020D01*
X154331Y70677D01*
X154330Y70677D01*
D01*
D01*
D01*
X154278Y70412D01*
X154104Y69538D01*
D01*
X154104D01*
D01*
D01*
D01*
D01*
D01*
Y69538D01*
D01*
D01*
D01*
D01*
D01*
D01*
Y69538D01*
X153895Y68487D01*
X153895Y68487D01*
X153862Y68320D01*
X153862Y68320D01*
X153862Y67822D01*
X153862Y67822D01*
D01*
D01*
X153862Y67822D01*
D01*
D01*
D01*
D01*
Y50320D01*
X154331Y47964D01*
X154881Y47139D01*
Y46034D01*
X147363Y39441D01*
X147320Y39447D01*
X144999Y39141D01*
X142837Y38245D01*
X140980Y36820D01*
X102985Y65974D01*
X88959Y80001D01*
Y115927D01*
X90160Y116850D01*
X91585Y118707D01*
X92481Y120869D01*
X92787Y123190D01*
X92481Y125511D01*
X91585Y127673D01*
X90160Y129530D01*
X88303Y130955D01*
X86141Y131851D01*
X83820Y132157D01*
X81499Y131851D01*
X79337Y130955D01*
X77480Y129530D01*
X76055Y127673D01*
X75159Y125511D01*
X74853Y123190D01*
X75159Y120869D01*
X76055Y118707D01*
X77480Y116850D01*
X78681Y115927D01*
Y77872D01*
X78681Y77872D01*
X78681D01*
X79072Y75906D01*
X80186Y74239D01*
X87977Y66448D01*
X84151Y57209D01*
X71520D01*
X71265Y57823D01*
X69840Y59680D01*
X67983Y61105D01*
X65821Y62001D01*
X63500Y62307D01*
X62887Y62226D01*
X55054Y68443D01*
X54822Y70798D01*
X53962Y73633D01*
X52566Y76246D01*
X50686Y78536D01*
X48396Y80416D01*
X45783Y81812D01*
X45494Y81900D01*
Y91900D01*
X45783Y91988D01*
X48396Y93384D01*
X50686Y95264D01*
X52566Y97554D01*
X53962Y100167D01*
X54822Y103002D01*
X55113Y105950D01*
X54822Y108898D01*
X53962Y111733D01*
X52566Y114346D01*
X50686Y116636D01*
X48396Y118516D01*
X45783Y119912D01*
X45494Y120000D01*
Y130000D01*
X45783Y130088D01*
X48396Y131484D01*
X50686Y133364D01*
X52566Y135654D01*
X53962Y138267D01*
X54822Y141102D01*
X55113Y144050D01*
X54822Y146998D01*
X53962Y149833D01*
X52566Y152446D01*
X50686Y154736D01*
X48396Y156616D01*
X46911Y157410D01*
X48235Y162697D01*
X57873Y165364D01*
X68756Y154481D01*
D02*
G37*
G36*
X106215Y236114D02*
X102404Y234535D01*
X97218Y231357D01*
X92593Y227407D01*
X88643Y222782D01*
X85465Y217596D01*
X83138Y211978D01*
X81718Y206063D01*
X81341Y201270D01*
X120000D01*
Y198730D01*
X81341D01*
X81718Y193937D01*
X83138Y188023D01*
X85465Y182404D01*
X88643Y177218D01*
X92593Y172593D01*
X84616Y163254D01*
X74518D01*
X55040Y182732D01*
Y197190D01*
X24960D01*
Y182647D01*
X24861Y182150D01*
X24960Y181653D01*
Y167110D01*
X30659D01*
X33089Y157410D01*
X31604Y156616D01*
X29314Y154736D01*
X27434Y152446D01*
X26038Y149833D01*
X25178Y146998D01*
X24887Y144050D01*
X25178Y141102D01*
X26038Y138267D01*
X27434Y135654D01*
X29314Y133364D01*
X31604Y131484D01*
X34217Y130088D01*
X34506Y130000D01*
Y120000D01*
X34217Y119912D01*
X31604Y118516D01*
X29314Y116636D01*
X27434Y114346D01*
X26038Y111733D01*
X25178Y108898D01*
X24887Y105950D01*
X25178Y103002D01*
X26038Y100167D01*
X27434Y97554D01*
X29314Y95264D01*
X31604Y93384D01*
X34217Y91988D01*
X34506Y91900D01*
Y81900D01*
X34217Y81812D01*
X31604Y80416D01*
X29314Y78536D01*
X27434Y76246D01*
X26038Y73633D01*
X25178Y70798D01*
X25012Y69120D01*
X40000D01*
Y67850D01*
X41270D01*
Y52862D01*
X42948Y53028D01*
X45783Y53888D01*
X54839Y51019D01*
X54839Y51019D01*
Y51019D01*
X55735Y48857D01*
X57160Y47000D01*
X59017Y45575D01*
X61179Y44679D01*
X63500Y44373D01*
X65821Y44679D01*
X67983Y45575D01*
X69751Y46931D01*
X94391D01*
X128006Y13317D01*
X124179Y4078D01*
X4078D01*
Y245922D01*
X104264D01*
X106215Y236114D01*
D02*
G37*
G36*
X400007Y201309D02*
X399864Y199859D01*
X398712Y196059D01*
X396840Y192558D01*
X394321Y189489D01*
X391252Y186970D01*
X387751Y185098D01*
X383951Y183946D01*
X380000Y183557D01*
X376049Y183946D01*
X372249Y185098D01*
X368748Y186970D01*
X365679Y189489D01*
X363160Y192558D01*
X361288Y196059D01*
X360136Y199859D01*
X359993Y201309D01*
X360000Y201310D01*
X400007Y201309D01*
D02*
G37*
G36*
X323951Y223674D02*
X327751Y222521D01*
X331252Y220650D01*
X334321Y218131D01*
X336840Y215062D01*
X338712Y211561D01*
X339864Y207761D01*
X340007Y206311D01*
X340000Y206310D01*
X299993Y206311D01*
X300136Y207761D01*
X301288Y211561D01*
X303160Y215062D01*
X305679Y218131D01*
X308748Y220650D01*
X312249Y222521D01*
X316049Y223674D01*
X320000Y224063D01*
X323951Y223674D01*
D02*
G37*
G36*
X383951D02*
X387751Y222521D01*
X391252Y220650D01*
X394321Y218131D01*
X396840Y215062D01*
X398712Y211561D01*
X399864Y207761D01*
X400007Y206311D01*
X400000Y206310D01*
X359993Y206311D01*
X360136Y207761D01*
X361288Y211561D01*
X363160Y215062D01*
X365679Y218131D01*
X368748Y220650D01*
X372249Y222521D01*
X376049Y223674D01*
X380000Y224063D01*
X383951Y223674D01*
D02*
G37*
G36*
X263951D02*
X267750Y222521D01*
X271252Y220650D01*
X274321Y218131D01*
X276840Y215062D01*
X278711Y211561D01*
X279864Y207761D01*
X280007Y206311D01*
X280000Y206310D01*
X239993Y206311D01*
X240136Y207761D01*
X241289Y211561D01*
X243160Y215062D01*
X245679Y218131D01*
X248748Y220650D01*
X252249Y222521D01*
X256049Y223674D01*
X260000Y224063D01*
X263951Y223674D01*
D02*
G37*
G36*
X203951D02*
X207751Y222521D01*
X211252Y220650D01*
X214321Y218131D01*
X216840Y215062D01*
X218711Y211561D01*
X219864Y207761D01*
X220007Y206311D01*
X220000Y206310D01*
X179993Y206311D01*
X180136Y207761D01*
X181289Y211561D01*
X183160Y215062D01*
X185679Y218131D01*
X188748Y220650D01*
X192250Y222521D01*
X196049Y223674D01*
X200000Y224063D01*
X203951Y223674D01*
D02*
G37*
G36*
X495922Y4078D02*
X395736D01*
X393785Y13886D01*
X397596Y15465D01*
X402782Y18643D01*
X407407Y22593D01*
X411357Y27218D01*
X414535Y32404D01*
X416862Y38023D01*
X418282Y43937D01*
X418660Y48730D01*
X341340D01*
X341718Y43937D01*
X343138Y38023D01*
X345465Y32404D01*
X348643Y27218D01*
X352593Y22593D01*
X357218Y18643D01*
X362404Y15465D01*
X366215Y13886D01*
X364264Y4078D01*
X248032D01*
X244205Y13317D01*
X250014Y19125D01*
X251128Y20792D01*
X251519Y22759D01*
Y38201D01*
X251128Y40167D01*
X251128Y40168D01*
X251128Y40168D01*
X251277Y44631D01*
X252243Y45276D01*
X252243D01*
Y45276D01*
X253275Y45966D01*
X254610Y47964D01*
X254610D01*
Y47964D01*
X254610Y47964D01*
X254610Y47964D01*
X255078Y50320D01*
D01*
X255078Y50320D01*
X255078Y50320D01*
Y54181D01*
X279000D01*
X280967Y54573D01*
X282634Y55687D01*
X282957Y56010D01*
X295520D01*
Y73590D01*
X273440D01*
Y64459D01*
X255078D01*
Y67822D01*
D01*
D01*
D01*
Y68320D01*
Y68295D01*
Y68320D01*
X255078Y68320D01*
X254981Y68809D01*
X254981Y68809D01*
X254836Y69538D01*
X254836Y69538D01*
D01*
D01*
D01*
D01*
D01*
X254836Y69538D01*
X254610Y70677D01*
X254610D01*
X254609Y70677D01*
X254392Y71003D01*
X254392Y71003D01*
X253965Y71641D01*
X253920Y71709D01*
X253920Y71709D01*
X253920D01*
X253882Y71766D01*
X253882Y71766D01*
X253369Y72534D01*
X253275Y72675D01*
D01*
X252045Y73496D01*
D01*
X251347Y73963D01*
X251277Y74010D01*
X253238Y83871D01*
X299205D01*
X313767Y77840D01*
X315071Y76353D01*
X315051Y76200D01*
X332649D01*
X332629Y76353D01*
X337481Y81885D01*
X347471Y82317D01*
X352593Y77407D01*
X348643Y72782D01*
X345465Y67596D01*
X343138Y61977D01*
X341718Y56063D01*
X341340Y51270D01*
X418660D01*
X418282Y56063D01*
X416862Y61977D01*
X414535Y67596D01*
X411357Y72782D01*
X407407Y77407D01*
X406776Y77946D01*
X409684Y87514D01*
X429260Y89811D01*
X429260Y89811D01*
Y89811D01*
X431227Y90202D01*
X432894Y91316D01*
X438427Y96849D01*
X446093Y96473D01*
X452050Y88441D01*
X450659Y82890D01*
X444960D01*
Y52810D01*
X475040D01*
Y82890D01*
X469341D01*
X466911Y92590D01*
X468396Y93384D01*
X470686Y95264D01*
X472566Y97554D01*
X473962Y100167D01*
X474822Y103002D01*
X475087Y105691D01*
X475139Y105950D01*
X475087Y106209D01*
X474870Y108411D01*
X475139Y109760D01*
X474748Y111727D01*
X473634Y113394D01*
X472765Y113974D01*
X472566Y114346D01*
X470686Y116636D01*
X468396Y118516D01*
X465783Y119912D01*
X465494Y120000D01*
Y130000D01*
X465783Y130088D01*
X468396Y131484D01*
X470686Y133364D01*
X472566Y135654D01*
X473962Y138267D01*
X474822Y141102D01*
X475113Y144050D01*
X474822Y146998D01*
X473962Y149833D01*
X472566Y152446D01*
X470686Y154736D01*
X468396Y156616D01*
X465783Y158012D01*
X465494Y158100D01*
Y168100D01*
X465783Y168188D01*
X468396Y169584D01*
X470686Y171464D01*
X472566Y173754D01*
X473962Y176367D01*
X474822Y179202D01*
X474988Y180880D01*
X445012D01*
X445178Y179202D01*
X446038Y176367D01*
X447434Y173754D01*
X449314Y171464D01*
X451604Y169584D01*
X454217Y168188D01*
X454506Y168100D01*
Y158100D01*
X454217Y158012D01*
X451604Y156616D01*
X449314Y154736D01*
X447434Y152446D01*
X446038Y149833D01*
X445178Y146998D01*
X444887Y144050D01*
X445178Y141102D01*
X446038Y138267D01*
X447434Y135654D01*
X449314Y133364D01*
X451604Y131484D01*
X454217Y130088D01*
X454506Y130000D01*
Y120000D01*
X454217Y119912D01*
X451604Y118516D01*
X449314Y116636D01*
X447434Y114346D01*
X446038Y111733D01*
X445842Y111089D01*
X440260D01*
X438294Y110698D01*
X436627Y109584D01*
X427132Y100089D01*
X418471D01*
X414940Y103620D01*
X414940Y107160D01*
X414940Y107160D01*
X414940Y107160D01*
Y120700D01*
X414532D01*
X411400Y129927D01*
X411400D01*
X411318Y130169D01*
X411318D01*
X412491Y131069D01*
X413860Y132853D01*
X414720Y134931D01*
X414846Y135890D01*
X397953D01*
X398080Y134931D01*
X398940Y132853D01*
X400309Y131069D01*
X401482Y130169D01*
X401482D01*
X401400Y129927D01*
X401400D01*
X398268Y120700D01*
X397860D01*
Y107160D01*
X397860Y107160D01*
X397860Y107160D01*
X397860Y103620D01*
X394329Y100089D01*
X351790D01*
X349823Y99698D01*
X348156Y98583D01*
X343722Y94149D01*
X295520D01*
Y109090D01*
X282957D01*
X280094Y111953D01*
X278427Y113067D01*
X276460Y113458D01*
X255078D01*
Y116822D01*
D01*
D01*
D01*
Y117004D01*
X255078Y117320D01*
X255078Y117320D01*
X255045Y117487D01*
X255045Y117487D01*
X254981Y117809D01*
Y117809D01*
X254932Y118054D01*
X254836Y118537D01*
Y118537D01*
D01*
D01*
D01*
D01*
D01*
D01*
D01*
D01*
D01*
D01*
D01*
D01*
X254836Y118537D01*
X254662Y119412D01*
X254610Y119677D01*
D01*
D01*
D01*
X254610Y119677D01*
X254392Y120003D01*
X254392Y120003D01*
X254228Y120247D01*
X254140Y120379D01*
X253920Y120709D01*
X253920Y120709D01*
D01*
D01*
D01*
D01*
D01*
Y120709D01*
X253920D01*
X253882Y120765D01*
Y120765D01*
X253644Y121122D01*
X253275Y121674D01*
Y121674D01*
D01*
X253275D01*
D01*
D01*
D01*
D01*
X253274Y121674D01*
X253095Y121794D01*
X253095Y121794D01*
X252243Y122364D01*
Y122364D01*
X252243D01*
D01*
X252243D01*
Y122364D01*
X252045Y122496D01*
X252045Y122496D01*
X251277Y123009D01*
X251277Y123009D01*
X251277Y123009D01*
X251145Y123036D01*
X251144D01*
X250492Y123166D01*
Y123166D01*
X250492Y123166D01*
X249751Y123313D01*
X249751Y123313D01*
X248920Y123478D01*
X248920Y123478D01*
D01*
D01*
D01*
D01*
D01*
D01*
X248530Y123401D01*
X247348Y123166D01*
X247348D01*
D01*
D01*
D01*
X247348D01*
D01*
D01*
X247240Y123144D01*
X246563Y123009D01*
X246563Y123009D01*
D01*
D01*
D01*
X246339Y122859D01*
X245597Y122364D01*
D01*
D01*
D01*
X245597D01*
Y122364D01*
D01*
D01*
D01*
D01*
X244565Y121674D01*
X244565D01*
X244162Y121070D01*
X243920Y120709D01*
X243175Y119718D01*
X240594Y121660D01*
X240594D01*
X240575Y121674D01*
D01*
X240575Y121674D01*
X240574D01*
X239543Y122364D01*
X239543D01*
Y122364D01*
X239543D01*
D01*
X239543D01*
Y122364D01*
X238577Y123009D01*
X238577Y123009D01*
X237792Y123166D01*
Y123166D01*
X237792Y123166D01*
X236220Y123478D01*
D01*
D01*
D01*
D01*
X234648Y123166D01*
X234648Y123166D01*
Y123166D01*
X233863Y123009D01*
X233863Y123009D01*
X233090Y122493D01*
X224750Y125477D01*
X221894Y131732D01*
X221894Y131732D01*
X224860Y136170D01*
X234681Y145991D01*
X337320D01*
X339286Y146382D01*
X340953Y147496D01*
X375011Y181554D01*
X375297Y181468D01*
X375551Y181443D01*
X375795Y181369D01*
X379746Y180979D01*
X380000Y181005D01*
X380254Y180979D01*
X384205Y181369D01*
X384449Y181443D01*
X384703Y181468D01*
X388502Y182620D01*
X388727Y182740D01*
X388971Y182815D01*
X392473Y184686D01*
X392670Y184848D01*
X392895Y184968D01*
X395964Y187487D01*
X396126Y187684D01*
X396323Y187846D01*
X398842Y190915D01*
X398962Y191140D01*
X399124Y191337D01*
X400995Y194839D01*
X401069Y195083D01*
X401190Y195308D01*
X402342Y199107D01*
X402367Y199361D01*
X402441Y199605D01*
X402584Y201055D01*
X402571Y201183D01*
X402574Y201196D01*
X402597Y201309D01*
X402597Y201309D01*
X402522Y201682D01*
X402485Y202061D01*
X402425Y202174D01*
X402399Y202300D01*
X402188Y202617D01*
X402009Y202952D01*
X401909Y203034D01*
Y203034D01*
X401909Y203034D01*
X402009Y204668D01*
X402025Y204699D01*
X402052Y204723D01*
X402226Y205070D01*
X402393Y205319D01*
X402414Y205426D01*
X402485Y205559D01*
X402489Y205595D01*
X402505Y205627D01*
X402533Y206024D01*
X402590Y206310D01*
X402569Y206413D01*
X402584Y206565D01*
X402441Y208015D01*
X402367Y208259D01*
X402342Y208513D01*
X401190Y212312D01*
X401069Y212537D01*
X400995Y212781D01*
X399124Y216283D01*
X398962Y216480D01*
X398842Y216705D01*
X396323Y219774D01*
X396126Y219936D01*
X395964Y220133D01*
X392895Y222652D01*
X392670Y222772D01*
X392473Y222934D01*
X388971Y224806D01*
X388727Y224879D01*
X388502Y225000D01*
X384703Y226152D01*
X384449Y226177D01*
X384205Y226251D01*
X380254Y226640D01*
X380000Y226616D01*
X379746Y226640D01*
X375795Y226251D01*
X375551Y226177D01*
X375297Y226152D01*
X371498Y225000D01*
X371273Y224879D01*
X371029Y224806D01*
X367527Y222934D01*
X367330Y222772D01*
X367105Y222652D01*
X364036Y220133D01*
X363874Y219936D01*
X363677Y219774D01*
X363000Y218949D01*
X337000D01*
X336323Y219774D01*
X336126Y219936D01*
X335964Y220133D01*
X332895Y222652D01*
X332670Y222772D01*
X332473Y222934D01*
X328971Y224806D01*
X328727Y224879D01*
X328502Y225000D01*
X324703Y226152D01*
X324449Y226177D01*
X324205Y226251D01*
X320254Y226640D01*
X320000Y226616D01*
X319746Y226640D01*
X315795Y226251D01*
X315551Y226177D01*
X315297Y226152D01*
X311498Y225000D01*
X311273Y224879D01*
X311029Y224806D01*
X307527Y222934D01*
X307330Y222772D01*
X307105Y222652D01*
X304036Y220133D01*
X303874Y219936D01*
X303677Y219774D01*
X303000Y218949D01*
X277000D01*
X276323Y219774D01*
X276126Y219936D01*
X275964Y220133D01*
X272895Y222652D01*
X272670Y222772D01*
X272473Y222934D01*
X268971Y224806D01*
X268727Y224879D01*
X268502Y225000D01*
X264703Y226152D01*
X264449Y226177D01*
X264205Y226251D01*
X260254Y226640D01*
X260000Y226616D01*
X259746Y226640D01*
X255795Y226251D01*
X255551Y226177D01*
X255297Y226152D01*
X251498Y225000D01*
X251273Y224879D01*
X251029Y224806D01*
X247527Y222934D01*
X247330Y222772D01*
X247105Y222652D01*
X244036Y220133D01*
X243874Y219936D01*
X243677Y219774D01*
X243000Y218949D01*
X217000D01*
X216323Y219774D01*
X216126Y219936D01*
X215964Y220133D01*
X212895Y222652D01*
X212670Y222772D01*
X212473Y222934D01*
X208971Y224806D01*
X208727Y224879D01*
X208502Y225000D01*
X204703Y226152D01*
X204449Y226177D01*
X204205Y226251D01*
X200254Y226640D01*
X200000Y226616D01*
X199746Y226640D01*
X195795Y226251D01*
X195551Y226177D01*
X195297Y226152D01*
X191498Y225000D01*
X191273Y224879D01*
X191029Y224806D01*
X187527Y222934D01*
X187330Y222772D01*
X187105Y222652D01*
X184036Y220133D01*
X183874Y219936D01*
X183677Y219774D01*
X183000Y218949D01*
X171900D01*
X169934Y218558D01*
X168267Y217444D01*
X164965Y214143D01*
X157042Y215719D01*
X154651Y217316D01*
X154535Y217596D01*
X151357Y222782D01*
X147407Y227407D01*
X142782Y231357D01*
X137596Y234535D01*
X133785Y236114D01*
X135736Y245922D01*
X495922D01*
Y4078D01*
D02*
G37*
%LPC*%
G36*
X38730Y66580D02*
X25012D01*
X25178Y64902D01*
X26038Y62067D01*
X27434Y59454D01*
X29314Y57164D01*
X31604Y55284D01*
X34217Y53888D01*
X37052Y53028D01*
X38730Y52862D01*
Y66580D01*
D02*
G37*
G36*
X332649Y73660D02*
X325120D01*
Y66130D01*
X326171Y66269D01*
X328333Y67165D01*
X330190Y68590D01*
X331615Y70447D01*
X332511Y72609D01*
X332649Y73660D01*
D02*
G37*
G36*
X322580D02*
X315051D01*
X315189Y72609D01*
X316085Y70447D01*
X317510Y68590D01*
X319367Y67165D01*
X321529Y66269D01*
X322580Y66130D01*
Y73660D01*
D02*
G37*
G36*
X458730Y197138D02*
X457052Y196972D01*
X454217Y196112D01*
X451604Y194716D01*
X449314Y192836D01*
X447434Y190546D01*
X446038Y187933D01*
X445178Y185098D01*
X445012Y183420D01*
X458730D01*
Y197138D01*
D02*
G37*
G36*
X461270D02*
Y183420D01*
X474988D01*
X474822Y185098D01*
X473962Y187933D01*
X472566Y190546D01*
X470686Y192836D01*
X468396Y194716D01*
X465783Y196112D01*
X462948Y196972D01*
X461270Y197138D01*
D02*
G37*
G36*
X405130Y145606D02*
X404171Y145480D01*
X402093Y144620D01*
X400309Y143251D01*
X398940Y141467D01*
X398080Y139389D01*
X397953Y138430D01*
X405130D01*
Y145606D01*
D02*
G37*
G36*
X407670D02*
Y138430D01*
X414846D01*
X414720Y139389D01*
X413860Y141467D01*
X412491Y143251D01*
X410707Y144620D01*
X408629Y145480D01*
X407670Y145606D01*
D02*
G37*
%LPD*%
G36*
X280007Y451309D02*
X279864Y449859D01*
X278711Y446059D01*
X276840Y442558D01*
X274321Y439489D01*
X271252Y436970D01*
X267750Y435098D01*
X263951Y433946D01*
X260000Y433557D01*
X256049Y433946D01*
X252249Y435098D01*
X248748Y436970D01*
X245679Y439489D01*
X243160Y442558D01*
X241289Y446059D01*
X240136Y449859D01*
X239993Y451309D01*
X240000Y451310D01*
X280007Y451309D01*
D02*
G37*
G36*
X340007D02*
X339864Y449859D01*
X338712Y446059D01*
X336840Y442558D01*
X334321Y439489D01*
X331252Y436970D01*
X327751Y435098D01*
X323951Y433946D01*
X320000Y433557D01*
X316049Y433946D01*
X312249Y435098D01*
X308748Y436970D01*
X305679Y439489D01*
X303160Y442558D01*
X301288Y446059D01*
X300136Y449859D01*
X299993Y451309D01*
X300000Y451310D01*
X340007Y451309D01*
D02*
G37*
G36*
X220007D02*
X219864Y449859D01*
X218711Y446059D01*
X216840Y442558D01*
X214321Y439489D01*
X211252Y436970D01*
X207751Y435098D01*
X203951Y433946D01*
X200000Y433557D01*
X196049Y433946D01*
X192250Y435098D01*
X188748Y436970D01*
X185679Y439489D01*
X183160Y442558D01*
X181289Y446059D01*
X180136Y449859D01*
X179993Y451309D01*
X180000Y451310D01*
X220007Y451309D01*
D02*
G37*
G36*
X68756Y404481D02*
X70423Y403367D01*
X72390Y402976D01*
X153979D01*
X154744Y401131D01*
X153518Y391823D01*
X151095Y390741D01*
D01*
X148933Y389845D01*
X147076Y388420D01*
X145651Y386563D01*
X144755Y384401D01*
X144449Y382080D01*
X144755Y379759D01*
X145651Y377597D01*
X147076Y375740D01*
X148933Y374315D01*
X151095Y373419D01*
X154330Y369677D01*
D01*
X154331D01*
X153862Y367320D01*
Y349818D01*
D01*
D01*
D01*
D01*
X153862D01*
D01*
Y349818D01*
X153862Y349818D01*
X153862Y349320D01*
X153862Y349320D01*
X153895Y349153D01*
X153895Y349153D01*
X154104Y348102D01*
Y348102D01*
D01*
Y348102D01*
X154104D01*
X154278Y347228D01*
X154330Y346963D01*
D01*
D01*
D01*
X154331Y346963D01*
X154800Y346261D01*
X155020Y345931D01*
X155020D01*
D01*
D01*
D01*
D01*
D01*
X155020D01*
X155665Y344965D01*
X155666D01*
X156697Y344276D01*
Y344276D01*
X156697D01*
X156697D01*
Y344276D01*
X156697D01*
D01*
D01*
X157663Y343630D01*
X157663Y343630D01*
X158448Y343474D01*
Y343474D01*
X158448Y343474D01*
X160020Y343162D01*
X160020Y343162D01*
D01*
X160020Y343161D01*
D01*
D01*
D01*
X160410Y343239D01*
X161592Y343474D01*
X161592D01*
D01*
D01*
D01*
X161592D01*
D01*
D01*
X161700Y343496D01*
X162377Y343630D01*
X162377Y343630D01*
X163343Y344276D01*
D01*
Y344276D01*
X163343D01*
D01*
D01*
D01*
X164375Y344965D01*
X164375D01*
X164375D01*
X170274Y343690D01*
X170363Y343630D01*
X170363Y343630D01*
X171148Y343474D01*
Y343474D01*
X171148Y343474D01*
X172719Y343162D01*
X172720Y343161D01*
X172720Y343162D01*
X174292Y343474D01*
X174292Y343474D01*
Y343474D01*
X175077Y343630D01*
X175077Y343630D01*
X176043Y344276D01*
X176043Y344276D01*
Y344276D01*
X177075Y344965D01*
X177075D01*
X177075Y344965D01*
Y344965D01*
X177075D01*
X177075D01*
X182974Y343690D01*
X183063Y343630D01*
X183063Y343630D01*
X183848Y343474D01*
Y343474D01*
X183848Y343474D01*
X185418Y343162D01*
X185420Y343161D01*
X185420Y343162D01*
X186992Y343474D01*
X186992Y343474D01*
Y343474D01*
X187777Y343630D01*
X187777Y343630D01*
X188743Y344276D01*
X188743Y344276D01*
Y344276D01*
X189774Y344965D01*
X189775D01*
X189775Y344965D01*
Y344965D01*
X189775D01*
X189775D01*
X195674Y343690D01*
X195763Y343630D01*
X195763Y343630D01*
X196548Y343474D01*
Y343474D01*
X196548Y343474D01*
X198118Y343162D01*
X198120Y343161D01*
X198120Y343162D01*
X199692Y343474D01*
X199692Y343474D01*
Y343474D01*
X200477Y343630D01*
X200477Y343630D01*
X201443Y344276D01*
X201443Y344276D01*
Y344276D01*
X202474Y344965D01*
X202475D01*
X202475Y344965D01*
Y344965D01*
X202475D01*
X202475D01*
X208374Y343690D01*
X208463Y343630D01*
X208463Y343630D01*
X209248Y343474D01*
Y343474D01*
X209248Y343474D01*
X209550Y343414D01*
Y358320D01*
X212090D01*
Y343414D01*
X212392Y343474D01*
X212392Y343474D01*
Y343474D01*
X213177Y343630D01*
X213177Y343630D01*
X214143Y344276D01*
X214143Y344276D01*
Y344276D01*
X215175Y344965D01*
X215175D01*
X215175Y344965D01*
Y344965D01*
X215175D01*
X215175D01*
X221074Y343690D01*
X221163Y343630D01*
X221163Y343630D01*
X221948Y343474D01*
Y343474D01*
X221948Y343474D01*
X223519Y343162D01*
X223520Y343161D01*
X223520Y343162D01*
X223591Y343176D01*
X225092Y343474D01*
X225092Y343474D01*
Y343474D01*
X225877Y343630D01*
X225877Y343630D01*
X226843Y344276D01*
X226843Y344276D01*
Y344276D01*
X227875Y344965D01*
X227875D01*
X227875Y344965D01*
X227875Y344965D01*
X227875Y344965D01*
X227875D01*
D01*
X228014Y345174D01*
X228520Y345931D01*
X229265Y346921D01*
X231865Y344965D01*
X231865Y344965D01*
Y344965D01*
X233863Y343630D01*
X235613Y343282D01*
X243519Y335377D01*
X244766Y334543D01*
X245186Y334263D01*
X245186D01*
X245186Y334263D01*
X245186Y334263D01*
X245699Y334161D01*
X247153Y333871D01*
D01*
D01*
X246993Y331207D01*
X241579Y324010D01*
X238577D01*
X238577D01*
X238577Y324010D01*
X237792Y324166D01*
Y324166D01*
X237792Y324166D01*
X236220Y324478D01*
D01*
D01*
D01*
D01*
X234648Y324166D01*
X234648Y324166D01*
Y324166D01*
X233863Y324010D01*
X233863Y324010D01*
X232897Y323364D01*
X232897Y323364D01*
Y323364D01*
X231866Y322675D01*
X231865D01*
X231865D01*
X231865D01*
X231865D01*
Y322675D01*
X231726Y322466D01*
X231220Y321709D01*
X230475Y320719D01*
X227894Y322660D01*
X227894D01*
X227875Y322675D01*
D01*
X227875Y322675D01*
X227875D01*
X226843Y323364D01*
X226843D01*
Y323364D01*
X226843D01*
D01*
X226843D01*
Y323364D01*
X225877Y324010D01*
X225877Y324010D01*
X225092Y324166D01*
Y324166D01*
X225092Y324166D01*
X223520Y324478D01*
D01*
D01*
D01*
D01*
X221948Y324166D01*
X221948Y324166D01*
Y324166D01*
X221163Y324010D01*
X221163Y324010D01*
X220197Y323364D01*
X220197Y323364D01*
Y323364D01*
X219165Y322675D01*
X219165D01*
X219165D01*
X219165D01*
X219165D01*
Y322675D01*
X219026Y322466D01*
X218520Y321709D01*
X217775Y320719D01*
X215194Y322660D01*
X215194D01*
X215175Y322675D01*
D01*
X215175Y322675D01*
X215175D01*
X214143Y323364D01*
X214143D01*
Y323364D01*
X214143D01*
D01*
X214143D01*
Y323364D01*
X213177Y324010D01*
X213177Y324010D01*
X212392Y324166D01*
Y324166D01*
X212392Y324166D01*
X210820Y324478D01*
D01*
D01*
D01*
D01*
X209248Y324166D01*
X209248Y324166D01*
Y324166D01*
X208463Y324010D01*
X208463Y324010D01*
X207497Y323364D01*
X207497Y323364D01*
Y323364D01*
X206465Y322675D01*
X206465D01*
X206465D01*
X206465D01*
X206465D01*
Y322675D01*
X206326Y322466D01*
X205820Y321709D01*
X205075Y320719D01*
X202494Y322660D01*
X202494D01*
X202475Y322675D01*
D01*
X202475Y322675D01*
X202474D01*
X201443Y323364D01*
X201443D01*
Y323364D01*
X201443D01*
D01*
X201443D01*
Y323364D01*
X200477Y324010D01*
X200477Y324010D01*
X199692Y324166D01*
Y324166D01*
X199692Y324166D01*
X198191Y324464D01*
X198120Y324478D01*
D01*
D01*
D01*
D01*
D01*
D01*
X196548Y324166D01*
X196548Y324166D01*
Y324166D01*
X195763Y324010D01*
X195763Y324010D01*
X194797Y323364D01*
X194797Y323364D01*
Y323364D01*
X193766Y322675D01*
X193765D01*
X193765D01*
X193765D01*
X193765D01*
Y322675D01*
X193626Y322466D01*
X193120Y321709D01*
X192375Y320719D01*
X189775Y322675D01*
X189775Y322675D01*
X189775D01*
X188743Y323364D01*
Y323364D01*
X188743Y323364D01*
X187777Y324010D01*
X187777Y324010D01*
X186992Y324166D01*
Y324166D01*
X186992Y324166D01*
X186690Y324226D01*
Y309320D01*
X184150D01*
Y324226D01*
X183848Y324166D01*
X183848Y324166D01*
Y324166D01*
X183063Y324010D01*
X183063Y324010D01*
X182097Y323364D01*
X182097Y323364D01*
Y323364D01*
X181065Y322675D01*
X181065D01*
X181065Y322675D01*
X178465Y320719D01*
X177720Y321709D01*
X177478Y322071D01*
X177075Y322675D01*
Y322675D01*
D01*
X177075D01*
D01*
X177075Y322675D01*
X176043Y323364D01*
X176043D01*
Y323364D01*
X176043D01*
D01*
X176043D01*
Y323364D01*
X175077Y324010D01*
X175077Y324010D01*
X174292Y324166D01*
Y324166D01*
X174292Y324166D01*
X172720Y324478D01*
D01*
D01*
D01*
D01*
D01*
D01*
X172649Y324464D01*
X171148Y324166D01*
X171148Y324166D01*
Y324166D01*
X170363Y324010D01*
X170363Y324010D01*
X169397Y323364D01*
D01*
D01*
D01*
X169397D01*
Y323364D01*
D01*
D01*
Y323364D01*
X169397D01*
X168365Y322675D01*
X168365D01*
X167962Y322071D01*
X167720Y321709D01*
X166975Y320719D01*
X164394Y322660D01*
X164394D01*
X164375Y322675D01*
D01*
X164375Y322675D01*
X164375D01*
X163343Y323364D01*
D01*
D01*
D01*
D01*
Y323364D01*
X163343D01*
D01*
D01*
X162377Y324010D01*
X162377Y324010D01*
X161700Y324144D01*
X161592Y324166D01*
D01*
X161592D01*
D01*
D01*
D01*
D01*
X161592D01*
X160745Y324334D01*
X160104Y324462D01*
D01*
X160020Y324479D01*
D01*
D01*
D01*
D01*
D01*
D01*
X160020Y324478D01*
X158448Y324166D01*
X158448Y324166D01*
Y324166D01*
X157663Y324010D01*
X157663Y324010D01*
X156697Y323364D01*
X156697Y323364D01*
Y323364D01*
X155666Y322675D01*
X155665D01*
Y322675D01*
X155020Y321709D01*
D01*
X155020D01*
D01*
D01*
Y321709D01*
X155020D01*
X155020D01*
X154331Y320677D01*
X154330Y320677D01*
D01*
D01*
D01*
X154278Y320412D01*
X154104Y319538D01*
D01*
X154104D01*
D01*
D01*
D01*
D01*
D01*
Y319538D01*
D01*
D01*
D01*
D01*
D01*
D01*
Y319538D01*
X153895Y318487D01*
X153895Y318487D01*
X153862Y318320D01*
X153862Y318320D01*
X153862Y317822D01*
X153862Y317822D01*
D01*
D01*
X153862Y317822D01*
D01*
D01*
D01*
D01*
Y300320D01*
X154331Y297964D01*
X154881Y297139D01*
Y296035D01*
X147363Y289441D01*
X147320Y289447D01*
X144999Y289141D01*
X142837Y288245D01*
X140980Y286820D01*
X102985Y315974D01*
X88959Y330001D01*
Y365928D01*
X90160Y366850D01*
X91585Y368707D01*
X92481Y370869D01*
X92787Y373190D01*
X92481Y375511D01*
X91585Y377673D01*
X90160Y379530D01*
X88303Y380955D01*
X86141Y381851D01*
X83820Y382157D01*
X81499Y381851D01*
X79337Y380955D01*
X77480Y379530D01*
X76055Y377673D01*
X75159Y375511D01*
X74853Y373190D01*
X75159Y370869D01*
X76055Y368707D01*
X77480Y366850D01*
X78681Y365928D01*
Y327872D01*
X78681Y327872D01*
X78681D01*
X79072Y325906D01*
X80186Y324239D01*
X87977Y316448D01*
X84151Y307209D01*
X71520D01*
X71265Y307823D01*
X69840Y309680D01*
X67983Y311105D01*
X65821Y312001D01*
X63500Y312307D01*
X62887Y312226D01*
X55054Y318443D01*
X54822Y320798D01*
X53962Y323633D01*
X52566Y326246D01*
X50686Y328536D01*
X48396Y330416D01*
X45783Y331812D01*
X45494Y331900D01*
Y341900D01*
X45783Y341988D01*
X48396Y343384D01*
X50686Y345264D01*
X52566Y347554D01*
X53962Y350167D01*
X54822Y353002D01*
X55113Y355950D01*
X54822Y358898D01*
X53962Y361733D01*
X52566Y364346D01*
X50686Y366636D01*
X48396Y368516D01*
X45783Y369912D01*
X45494Y370000D01*
Y380000D01*
X45783Y380088D01*
X48396Y381484D01*
X50686Y383364D01*
X52566Y385654D01*
X53962Y388267D01*
X54822Y391102D01*
X55113Y394050D01*
X54822Y396998D01*
X53962Y399833D01*
X52566Y402446D01*
X50686Y404736D01*
X48396Y406616D01*
X46911Y407410D01*
X48235Y412697D01*
X57873Y415364D01*
X68756Y404481D01*
D02*
G37*
G36*
X106215Y486114D02*
X102404Y484535D01*
X97218Y481357D01*
X92593Y477407D01*
X88643Y472782D01*
X85465Y467597D01*
X83138Y461978D01*
X81718Y456063D01*
X81341Y451270D01*
X120000D01*
Y448730D01*
X81341D01*
X81718Y443937D01*
X83138Y438023D01*
X85465Y432404D01*
X88643Y427218D01*
X92593Y422593D01*
X84616Y413254D01*
X74518D01*
X55040Y432732D01*
Y447190D01*
X24960D01*
Y432647D01*
X24861Y432150D01*
X24960Y431653D01*
Y417110D01*
X30659D01*
X33089Y407410D01*
X31604Y406616D01*
X29314Y404736D01*
X27434Y402446D01*
X26038Y399833D01*
X25178Y396998D01*
X24887Y394050D01*
X25178Y391102D01*
X26038Y388267D01*
X27434Y385654D01*
X29314Y383364D01*
X31604Y381484D01*
X34217Y380088D01*
X34506Y380000D01*
Y370000D01*
X34217Y369912D01*
X31604Y368516D01*
X29314Y366636D01*
X27434Y364346D01*
X26038Y361733D01*
X25178Y358898D01*
X24887Y355950D01*
X25178Y353002D01*
X26038Y350167D01*
X27434Y347554D01*
X29314Y345264D01*
X31604Y343384D01*
X34217Y341988D01*
X34506Y341900D01*
Y331900D01*
X34217Y331812D01*
X31604Y330416D01*
X29314Y328536D01*
X27434Y326246D01*
X26038Y323633D01*
X25178Y320798D01*
X25012Y319120D01*
X40000D01*
Y317850D01*
X41270D01*
Y302862D01*
X42948Y303028D01*
X45783Y303888D01*
X54839Y301019D01*
X54839Y301019D01*
Y301019D01*
X55735Y298857D01*
X57160Y297000D01*
X59017Y295575D01*
X61179Y294679D01*
X63500Y294373D01*
X65821Y294679D01*
X67983Y295575D01*
X69751Y296931D01*
X94391D01*
X128006Y263317D01*
X124179Y254078D01*
X4078D01*
Y495922D01*
X104264D01*
X106215Y486114D01*
D02*
G37*
G36*
X400007Y451309D02*
X399864Y449859D01*
X398712Y446059D01*
X396840Y442558D01*
X394321Y439489D01*
X391252Y436970D01*
X387751Y435098D01*
X383951Y433946D01*
X380000Y433557D01*
X376049Y433946D01*
X372249Y435098D01*
X368748Y436970D01*
X365679Y439489D01*
X363160Y442558D01*
X361288Y446059D01*
X360136Y449859D01*
X359993Y451309D01*
X360000Y451310D01*
X400007Y451309D01*
D02*
G37*
G36*
X323951Y473674D02*
X327751Y472522D01*
X331252Y470650D01*
X334321Y468131D01*
X336840Y465062D01*
X338712Y461561D01*
X339864Y457761D01*
X340007Y456311D01*
X340000Y456310D01*
X299993Y456311D01*
X300136Y457761D01*
X301288Y461561D01*
X303160Y465062D01*
X305679Y468131D01*
X308748Y470650D01*
X312249Y472522D01*
X316049Y473674D01*
X320000Y474063D01*
X323951Y473674D01*
D02*
G37*
G36*
X383951D02*
X387751Y472522D01*
X391252Y470650D01*
X394321Y468131D01*
X396840Y465062D01*
X398712Y461561D01*
X399864Y457761D01*
X400007Y456311D01*
X400000Y456310D01*
X359993Y456311D01*
X360136Y457761D01*
X361288Y461561D01*
X363160Y465062D01*
X365679Y468131D01*
X368748Y470650D01*
X372249Y472522D01*
X376049Y473674D01*
X380000Y474063D01*
X383951Y473674D01*
D02*
G37*
G36*
X263951D02*
X267750Y472522D01*
X271252Y470650D01*
X274321Y468131D01*
X276840Y465062D01*
X278711Y461561D01*
X279864Y457761D01*
X280007Y456311D01*
X280000Y456310D01*
X239993Y456311D01*
X240136Y457761D01*
X241289Y461561D01*
X243160Y465062D01*
X245679Y468131D01*
X248748Y470650D01*
X252249Y472522D01*
X256049Y473674D01*
X260000Y474063D01*
X263951Y473674D01*
D02*
G37*
G36*
X203951D02*
X207751Y472522D01*
X211252Y470650D01*
X214321Y468131D01*
X216840Y465062D01*
X218711Y461561D01*
X219864Y457761D01*
X220007Y456311D01*
X220000Y456310D01*
X179993Y456311D01*
X180136Y457761D01*
X181289Y461561D01*
X183160Y465062D01*
X185679Y468131D01*
X188748Y470650D01*
X192250Y472522D01*
X196049Y473674D01*
X200000Y474063D01*
X203951Y473674D01*
D02*
G37*
G36*
X495922Y254078D02*
X395736D01*
X393785Y263886D01*
X397596Y265465D01*
X402782Y268643D01*
X407407Y272593D01*
X411357Y277218D01*
X414535Y282404D01*
X416862Y288023D01*
X418282Y293937D01*
X418660Y298730D01*
X341340D01*
X341718Y293937D01*
X343138Y288023D01*
X345465Y282404D01*
X348643Y277218D01*
X352593Y272593D01*
X357218Y268643D01*
X362404Y265465D01*
X366215Y263886D01*
X364264Y254078D01*
X248032D01*
X244205Y263317D01*
X250014Y269125D01*
X251128Y270792D01*
X251519Y272759D01*
Y288201D01*
X251128Y290168D01*
X251128Y290168D01*
X251128Y290168D01*
X251277Y294631D01*
X252243Y295276D01*
X252243D01*
Y295276D01*
X253275Y295966D01*
X254610Y297964D01*
X254610D01*
Y297964D01*
X254610Y297964D01*
X254610Y297964D01*
X255078Y300320D01*
D01*
X255078Y300320D01*
X255078Y300320D01*
Y304181D01*
X279000D01*
X280967Y304573D01*
X282634Y305687D01*
X282957Y306010D01*
X295520D01*
Y323590D01*
X273440D01*
Y314459D01*
X255078D01*
Y317822D01*
D01*
D01*
D01*
Y318320D01*
Y318295D01*
Y318320D01*
X255078Y318320D01*
X254981Y318809D01*
X254981Y318809D01*
X254836Y319538D01*
X254836Y319538D01*
D01*
D01*
D01*
D01*
D01*
X254836Y319538D01*
X254610Y320677D01*
X254610D01*
X254609Y320677D01*
X254392Y321003D01*
X254392Y321003D01*
X253965Y321641D01*
X253920Y321709D01*
X253920Y321709D01*
X253920D01*
X253882Y321766D01*
X253882Y321766D01*
X253369Y322534D01*
X253275Y322675D01*
D01*
X252045Y323496D01*
D01*
X251347Y323963D01*
X251277Y324010D01*
X253238Y333871D01*
X299205D01*
X313767Y327840D01*
X315071Y326353D01*
X315051Y326200D01*
X332649D01*
X332629Y326353D01*
X337481Y331885D01*
X347471Y332317D01*
X352593Y327407D01*
X348643Y322782D01*
X345465Y317596D01*
X343138Y311977D01*
X341718Y306063D01*
X341340Y301270D01*
X418660D01*
X418282Y306063D01*
X416862Y311977D01*
X414535Y317596D01*
X411357Y322782D01*
X407407Y327407D01*
X406776Y327946D01*
X409684Y337514D01*
X429260Y339811D01*
X429260Y339811D01*
Y339811D01*
X431227Y340202D01*
X432894Y341316D01*
X438427Y346850D01*
X446093Y346473D01*
X452050Y338441D01*
X450659Y332890D01*
X444960D01*
Y302810D01*
X475040D01*
Y332890D01*
X469341D01*
X466911Y342590D01*
X468396Y343384D01*
X470686Y345264D01*
X472566Y347554D01*
X473962Y350167D01*
X474822Y353002D01*
X475087Y355691D01*
X475139Y355950D01*
X475087Y356209D01*
X474870Y358411D01*
X475139Y359760D01*
X474748Y361726D01*
X473634Y363394D01*
X472765Y363974D01*
X472566Y364346D01*
X470686Y366636D01*
X468396Y368516D01*
X465783Y369912D01*
X465494Y370000D01*
Y380000D01*
X465783Y380088D01*
X468396Y381484D01*
X470686Y383364D01*
X472566Y385654D01*
X473962Y388267D01*
X474822Y391102D01*
X475113Y394050D01*
X474822Y396998D01*
X473962Y399833D01*
X472566Y402446D01*
X470686Y404736D01*
X468396Y406616D01*
X465783Y408012D01*
X465494Y408100D01*
Y418100D01*
X465783Y418188D01*
X468396Y419584D01*
X470686Y421464D01*
X472566Y423754D01*
X473962Y426367D01*
X474822Y429202D01*
X474988Y430880D01*
X445012D01*
X445178Y429202D01*
X446038Y426367D01*
X447434Y423754D01*
X449314Y421464D01*
X451604Y419584D01*
X454217Y418188D01*
X454506Y418100D01*
Y408100D01*
X454217Y408012D01*
X451604Y406616D01*
X449314Y404736D01*
X447434Y402446D01*
X446038Y399833D01*
X445178Y396998D01*
X444887Y394050D01*
X445178Y391102D01*
X446038Y388267D01*
X447434Y385654D01*
X449314Y383364D01*
X451604Y381484D01*
X454217Y380088D01*
X454506Y380000D01*
Y370000D01*
X454217Y369912D01*
X451604Y368516D01*
X449314Y366636D01*
X447434Y364346D01*
X446038Y361733D01*
X445842Y361089D01*
X440260D01*
X438294Y360698D01*
X436627Y359584D01*
X427132Y350089D01*
X418471D01*
X414940Y353620D01*
X414940Y357160D01*
X414940Y357160D01*
X414940Y357160D01*
Y370700D01*
X414532D01*
X411400Y379927D01*
X411400D01*
X411318Y380169D01*
X411318D01*
X412491Y381069D01*
X413860Y382853D01*
X414720Y384931D01*
X414846Y385890D01*
X397953D01*
X398080Y384931D01*
X398940Y382853D01*
X400309Y381069D01*
X401482Y380169D01*
X401482D01*
X401400Y379927D01*
X401400D01*
X398268Y370700D01*
X397860D01*
Y357160D01*
X397860Y357160D01*
X397860Y357160D01*
X397860Y353620D01*
X394329Y350089D01*
X351790D01*
X349823Y349697D01*
X348156Y348583D01*
X343722Y344149D01*
X295520D01*
Y359090D01*
X282957D01*
X280094Y361954D01*
X278427Y363067D01*
X276460Y363459D01*
X255078D01*
Y366822D01*
D01*
D01*
D01*
Y367004D01*
X255078Y367320D01*
X255078Y367320D01*
X255045Y367487D01*
X255045Y367487D01*
X254981Y367808D01*
Y367809D01*
X254932Y368054D01*
X254836Y368537D01*
Y368537D01*
D01*
D01*
D01*
D01*
D01*
D01*
D01*
D01*
D01*
D01*
D01*
D01*
X254836Y368537D01*
X254662Y369412D01*
X254610Y369677D01*
D01*
D01*
D01*
X254610Y369677D01*
X254392Y370003D01*
X254392Y370003D01*
X254228Y370247D01*
X254140Y370379D01*
X253920Y370709D01*
X253920Y370709D01*
D01*
D01*
D01*
D01*
D01*
Y370709D01*
X253920D01*
X253882Y370765D01*
Y370765D01*
X253644Y371122D01*
X253275Y371674D01*
Y371674D01*
D01*
X253275D01*
D01*
D01*
D01*
D01*
X253274Y371674D01*
X253095Y371794D01*
X253095Y371794D01*
X252243Y372364D01*
Y372364D01*
X252243D01*
D01*
X252243D01*
Y372364D01*
X252045Y372496D01*
X252045Y372496D01*
X251277Y373009D01*
X251277Y373009D01*
X251277Y373009D01*
X251145Y373036D01*
X251144D01*
X250492Y373166D01*
Y373166D01*
X250492Y373166D01*
X249751Y373313D01*
X249751Y373313D01*
X248920Y373478D01*
X248920Y373478D01*
D01*
D01*
D01*
D01*
D01*
D01*
X248530Y373401D01*
X247348Y373166D01*
X247348D01*
D01*
D01*
D01*
X247348D01*
D01*
D01*
X247240Y373144D01*
X246563Y373009D01*
X246563Y373009D01*
D01*
D01*
D01*
X246339Y372859D01*
X245597Y372364D01*
D01*
D01*
D01*
X245597D01*
Y372364D01*
D01*
D01*
D01*
D01*
X244565Y371674D01*
X244565D01*
X244162Y371070D01*
X243920Y370709D01*
X243175Y369718D01*
X240594Y371660D01*
X240594D01*
X240575Y371674D01*
D01*
X240575Y371674D01*
X240574D01*
X239543Y372364D01*
X239543D01*
Y372364D01*
X239543D01*
D01*
X239543D01*
Y372364D01*
X238577Y373009D01*
X238577Y373009D01*
X237792Y373166D01*
Y373166D01*
X237792Y373166D01*
X236220Y373478D01*
D01*
D01*
D01*
D01*
X234648Y373166D01*
X234648Y373166D01*
Y373166D01*
X233863Y373009D01*
X233863Y373009D01*
X233090Y372493D01*
X224750Y375477D01*
X221894Y381731D01*
X221894Y381732D01*
X224860Y386170D01*
X234681Y395991D01*
X337320D01*
X339286Y396382D01*
X340953Y397496D01*
X375011Y431554D01*
X375297Y431468D01*
X375551Y431443D01*
X375795Y431369D01*
X379746Y430979D01*
X380000Y431004D01*
X380254Y430979D01*
X384205Y431369D01*
X384449Y431443D01*
X384703Y431468D01*
X388502Y432620D01*
X388727Y432741D01*
X388971Y432814D01*
X392473Y434686D01*
X392670Y434848D01*
X392895Y434968D01*
X395964Y437487D01*
X396126Y437684D01*
X396323Y437846D01*
X398842Y440915D01*
X398962Y441140D01*
X399124Y441337D01*
X400995Y444839D01*
X401069Y445083D01*
X401190Y445308D01*
X402342Y449107D01*
X402367Y449361D01*
X402441Y449605D01*
X402584Y451055D01*
X402571Y451183D01*
X402574Y451197D01*
X402597Y451309D01*
X402597Y451309D01*
X402522Y451682D01*
X402485Y452061D01*
X402425Y452174D01*
X402399Y452300D01*
X402188Y452617D01*
X402009Y452952D01*
X401909Y453034D01*
Y453034D01*
X401909Y453034D01*
X402009Y454668D01*
X402025Y454699D01*
X402052Y454723D01*
X402226Y455070D01*
X402393Y455319D01*
X402414Y455426D01*
X402485Y455559D01*
X402489Y455595D01*
X402505Y455626D01*
X402533Y456024D01*
X402590Y456310D01*
X402569Y456413D01*
X402584Y456565D01*
X402441Y458015D01*
X402367Y458259D01*
X402342Y458513D01*
X401190Y462312D01*
X401069Y462537D01*
X400995Y462781D01*
X399124Y466283D01*
X398962Y466480D01*
X398842Y466705D01*
X396323Y469774D01*
X396126Y469936D01*
X395964Y470133D01*
X392895Y472652D01*
X392670Y472772D01*
X392473Y472934D01*
X388971Y474805D01*
X388727Y474879D01*
X388502Y475000D01*
X384703Y476152D01*
X384449Y476177D01*
X384205Y476251D01*
X380254Y476641D01*
X380000Y476615D01*
X379746Y476641D01*
X375795Y476251D01*
X375551Y476177D01*
X375297Y476152D01*
X371498Y475000D01*
X371273Y474879D01*
X371029Y474805D01*
X367527Y472934D01*
X367330Y472772D01*
X367105Y472652D01*
X364036Y470133D01*
X363874Y469936D01*
X363677Y469774D01*
X363000Y468949D01*
X337000D01*
X336323Y469774D01*
X336126Y469936D01*
X335964Y470133D01*
X332895Y472652D01*
X332670Y472772D01*
X332473Y472934D01*
X328971Y474805D01*
X328727Y474879D01*
X328502Y475000D01*
X324703Y476152D01*
X324449Y476177D01*
X324205Y476251D01*
X320254Y476641D01*
X320000Y476615D01*
X319746Y476641D01*
X315795Y476251D01*
X315551Y476177D01*
X315297Y476152D01*
X311498Y475000D01*
X311273Y474879D01*
X311029Y474805D01*
X307527Y472934D01*
X307330Y472772D01*
X307105Y472652D01*
X304036Y470133D01*
X303874Y469936D01*
X303677Y469774D01*
X303000Y468949D01*
X277000D01*
X276323Y469774D01*
X276126Y469936D01*
X275964Y470133D01*
X272895Y472652D01*
X272670Y472772D01*
X272473Y472934D01*
X268971Y474805D01*
X268727Y474879D01*
X268502Y475000D01*
X264703Y476152D01*
X264449Y476177D01*
X264205Y476251D01*
X260254Y476641D01*
X260000Y476615D01*
X259746Y476641D01*
X255795Y476251D01*
X255551Y476177D01*
X255297Y476152D01*
X251498Y475000D01*
X251273Y474879D01*
X251029Y474805D01*
X247527Y472934D01*
X247330Y472772D01*
X247105Y472652D01*
X244036Y470133D01*
X243874Y469936D01*
X243677Y469774D01*
X243000Y468949D01*
X217000D01*
X216323Y469774D01*
X216126Y469936D01*
X215964Y470133D01*
X212895Y472652D01*
X212670Y472772D01*
X212473Y472934D01*
X208971Y474805D01*
X208727Y474879D01*
X208502Y475000D01*
X204703Y476152D01*
X204449Y476177D01*
X204205Y476251D01*
X200254Y476641D01*
X200000Y476615D01*
X199746Y476641D01*
X195795Y476251D01*
X195551Y476177D01*
X195297Y476152D01*
X191498Y475000D01*
X191273Y474879D01*
X191029Y474805D01*
X187527Y472934D01*
X187330Y472772D01*
X187105Y472652D01*
X184036Y470133D01*
X183874Y469936D01*
X183677Y469774D01*
X183000Y468949D01*
X171900D01*
X169934Y468558D01*
X168267Y467444D01*
X164965Y464143D01*
X157042Y465719D01*
X154651Y467316D01*
X154535Y467597D01*
X151357Y472782D01*
X147407Y477407D01*
X142782Y481357D01*
X137596Y484535D01*
X133785Y486114D01*
X135736Y495922D01*
X495922D01*
Y254078D01*
D02*
G37*
%LPC*%
G36*
X38730Y316580D02*
X25012D01*
X25178Y314902D01*
X26038Y312067D01*
X27434Y309454D01*
X29314Y307164D01*
X31604Y305284D01*
X34217Y303888D01*
X37052Y303028D01*
X38730Y302862D01*
Y316580D01*
D02*
G37*
G36*
X332649Y323660D02*
X325120D01*
Y316131D01*
X326171Y316269D01*
X328333Y317165D01*
X330190Y318590D01*
X331615Y320447D01*
X332511Y322609D01*
X332649Y323660D01*
D02*
G37*
G36*
X322580D02*
X315051D01*
X315189Y322609D01*
X316085Y320447D01*
X317510Y318590D01*
X319367Y317165D01*
X321529Y316269D01*
X322580Y316131D01*
Y323660D01*
D02*
G37*
G36*
X458730Y447138D02*
X457052Y446972D01*
X454217Y446112D01*
X451604Y444716D01*
X449314Y442836D01*
X447434Y440546D01*
X446038Y437933D01*
X445178Y435098D01*
X445012Y433420D01*
X458730D01*
Y447138D01*
D02*
G37*
G36*
X461270D02*
Y433420D01*
X474988D01*
X474822Y435098D01*
X473962Y437933D01*
X472566Y440546D01*
X470686Y442836D01*
X468396Y444716D01*
X465783Y446112D01*
X462948Y446972D01*
X461270Y447138D01*
D02*
G37*
G36*
X405130Y395606D02*
X404171Y395480D01*
X402093Y394620D01*
X400309Y393251D01*
X398940Y391467D01*
X398080Y389389D01*
X397953Y388430D01*
X405130D01*
Y395606D01*
D02*
G37*
G36*
X407670D02*
Y388430D01*
X414846D01*
X414720Y389389D01*
X413860Y391467D01*
X412491Y393251D01*
X410707Y394620D01*
X408629Y395480D01*
X407670Y395606D01*
D02*
G37*
%LPD*%
D10*
X284480Y100300D02*
D03*
Y64800D02*
D03*
Y350300D02*
D03*
Y314800D02*
D03*
D11*
X248920Y108320D02*
D03*
X236220D02*
D03*
X223520D02*
D03*
X210820D02*
D03*
X198120D02*
D03*
X185420D02*
D03*
X172720D02*
D03*
X160020D02*
D03*
X248920Y59320D02*
D03*
X236220D02*
D03*
X223520D02*
D03*
X210820D02*
D03*
X198120D02*
D03*
X185420D02*
D03*
X172720D02*
D03*
X160020D02*
D03*
X248920Y358320D02*
D03*
X236220D02*
D03*
X223520D02*
D03*
X210820D02*
D03*
X198120D02*
D03*
X185420D02*
D03*
X172720D02*
D03*
X160020D02*
D03*
X248920Y309320D02*
D03*
X236220D02*
D03*
X223520D02*
D03*
X210820D02*
D03*
X198120D02*
D03*
X185420D02*
D03*
X172720D02*
D03*
X160020D02*
D03*
D12*
X200000Y193810D02*
D03*
Y213810D02*
D03*
X260000D02*
D03*
Y193810D02*
D03*
X320000D02*
D03*
Y213810D02*
D03*
X380000D02*
D03*
Y193810D02*
D03*
X200000Y443810D02*
D03*
Y463810D02*
D03*
X260000D02*
D03*
Y443810D02*
D03*
X320000D02*
D03*
Y463810D02*
D03*
X380000D02*
D03*
Y443810D02*
D03*
D13*
X72390Y158115D02*
X158115D01*
X48355Y182150D02*
X72390Y158115D01*
X30000Y182150D02*
X48355D01*
X158115Y158115D02*
X166370Y166370D01*
X77470Y134620D02*
X81280Y138430D01*
X72430Y100280D02*
Y127908D01*
X77470Y132948D01*
Y134620D01*
X337320Y151130D02*
X380000Y193810D01*
X291290Y165100D02*
X320000Y193810D01*
X233823Y165100D02*
X291290D01*
X246380Y22759D02*
Y38201D01*
X233941Y10320D02*
X246380Y22759D01*
X320000Y213810D02*
X380000D01*
X260000D02*
X320000D01*
X200000D02*
X260000D01*
X200000Y156677D02*
Y162556D01*
X200112Y162668D01*
X200000Y193810D02*
X200112Y193698D01*
Y162668D02*
Y193698D01*
X323850Y74930D02*
X344970Y53810D01*
X370000D01*
X160020Y59320D02*
X172720D01*
X210820Y91440D02*
X220980Y81280D01*
X210820Y91440D02*
Y108320D01*
X185420Y59320D02*
Y73914D01*
X210820Y46990D02*
Y59320D01*
X279000D02*
X284480Y64800D01*
X248920Y59320D02*
X279000D01*
X276460Y108320D02*
X284480Y100300D01*
X248920Y108320D02*
X276460D01*
X198120D02*
Y116697D01*
X172720Y108320D02*
Y116697D01*
X223520Y50398D02*
X238720Y35198D01*
X223520Y50398D02*
Y59320D01*
X236220Y48361D02*
Y59320D01*
Y48361D02*
X246380Y38201D01*
X236220Y99942D02*
X247153Y89010D01*
X236220Y99942D02*
Y108320D01*
X223520D02*
X236220D01*
X185420Y73914D02*
X192532Y81026D01*
X166236D02*
X192532D01*
X166370Y208280D02*
X171900Y213810D01*
X200000D01*
X148590Y98673D02*
X166236Y81026D01*
X210820Y108320D02*
Y116697D01*
X185420Y108320D02*
Y116697D01*
X233823Y165100D01*
X172720Y116697D02*
X249833Y193810D01*
X148590Y98673D02*
Y119380D01*
X153416Y132080D02*
X188722Y167386D01*
X81280Y138430D02*
X129540D01*
X148590Y119380D01*
X166370Y166370D02*
Y208280D01*
X198120Y116697D02*
X232553Y151130D01*
X337320D01*
X231283Y137160D02*
X406400D01*
X210820Y116697D02*
X231283Y137160D01*
X440260Y105950D02*
X470000D01*
X429260Y94950D02*
X440260Y105950D01*
X351790Y94950D02*
X429260D01*
X192532Y81026D02*
X317754D01*
X323850Y74930D01*
X345850Y89010D02*
X351790Y94950D01*
X468095Y107855D02*
X470000Y109760D01*
X247153Y89010D02*
X345850D01*
X147320Y30480D02*
X160020Y43180D01*
Y59320D01*
X190500Y30480D02*
X198120Y38100D01*
X172212Y30480D02*
X190500D01*
X198120Y38100D02*
Y59320D01*
X210820Y46990D02*
X226060Y31750D01*
X228706Y18288D02*
X238720Y28302D01*
Y35198D01*
X160020Y108320D02*
Y116697D01*
X200000Y156677D01*
X13970Y193040D02*
X25400Y204470D01*
X115530D01*
X120000Y200000D01*
X13970Y93880D02*
Y193040D01*
Y93880D02*
X40000Y67850D01*
X72430Y100280D01*
X83820Y77872D02*
Y123190D01*
Y77872D02*
X143404Y18288D01*
X228706D01*
X96520Y52070D02*
X138270Y10320D01*
X64770Y52070D02*
X96520D01*
X63500Y53340D02*
X64770Y52070D01*
X138270Y10320D02*
X233941D01*
X406400Y137160D02*
X451390Y182150D01*
X460000D01*
X72390Y408115D02*
X158115D01*
X48355Y432150D02*
X72390Y408115D01*
X30000Y432150D02*
X48355D01*
X158115Y408115D02*
X166370Y416370D01*
X77470Y384620D02*
X81280Y388430D01*
X72430Y350280D02*
Y377908D01*
X77470Y382948D01*
Y384620D01*
X337320Y401130D02*
X380000Y443810D01*
X291290Y415100D02*
X320000Y443810D01*
X233823Y415100D02*
X291290D01*
X246380Y272759D02*
Y288201D01*
X233941Y260320D02*
X246380Y272759D01*
X320000Y463810D02*
X380000D01*
X260000D02*
X320000D01*
X200000D02*
X260000D01*
X200000Y406677D02*
Y412556D01*
X200112Y412668D01*
X200000Y443810D02*
X200112Y443698D01*
Y412668D02*
Y443698D01*
X323850Y324930D02*
X344970Y303810D01*
X370000D01*
X160020Y309320D02*
X172720D01*
X210820Y341440D02*
X220980Y331280D01*
X210820Y341440D02*
Y358320D01*
X185420Y309320D02*
Y323914D01*
X210820Y296990D02*
Y309320D01*
X279000D02*
X284480Y314800D01*
X248920Y309320D02*
X279000D01*
X276460Y358320D02*
X284480Y350300D01*
X248920Y358320D02*
X276460D01*
X198120D02*
Y366697D01*
X172720Y358320D02*
Y366697D01*
X223520Y300398D02*
X238720Y285198D01*
X223520Y300398D02*
Y309320D01*
X236220Y298361D02*
Y309320D01*
Y298361D02*
X246380Y288201D01*
X236220Y349942D02*
X247153Y339010D01*
X236220Y349942D02*
Y358320D01*
X223520D02*
X236220D01*
X185420Y323914D02*
X192532Y331026D01*
X166236D02*
X192532D01*
X166370Y458280D02*
X171900Y463810D01*
X200000D01*
X148590Y348672D02*
X166236Y331026D01*
X210820Y358320D02*
Y366697D01*
X185420Y358320D02*
Y366697D01*
X233823Y415100D01*
X172720Y366697D02*
X249833Y443810D01*
X148590Y348672D02*
Y369380D01*
X153416Y382080D02*
X188722Y417386D01*
X81280Y388430D02*
X129540D01*
X148590Y369380D01*
X166370Y416370D02*
Y458280D01*
X198120Y366697D02*
X232553Y401130D01*
X337320D01*
X231283Y387160D02*
X406400D01*
X210820Y366697D02*
X231283Y387160D01*
X440260Y355950D02*
X470000D01*
X429260Y344950D02*
X440260Y355950D01*
X351790Y344950D02*
X429260D01*
X192532Y331026D02*
X317754D01*
X323850Y324930D01*
X345850Y339010D02*
X351790Y344950D01*
X468095Y357855D02*
X470000Y359760D01*
X247153Y339010D02*
X345850D01*
X147320Y280480D02*
X160020Y293180D01*
Y309320D01*
X190500Y280480D02*
X198120Y288100D01*
X172212Y280480D02*
X190500D01*
X198120Y288100D02*
Y309320D01*
X210820Y296990D02*
X226060Y281750D01*
X228706Y268288D02*
X238720Y278302D01*
Y285198D01*
X160020Y358320D02*
Y366697D01*
X200000Y406677D01*
X13970Y443040D02*
X25400Y454470D01*
X115530D01*
X120000Y450000D01*
X13970Y343880D02*
Y443040D01*
Y343880D02*
X40000Y317850D01*
X72430Y350280D01*
X83820Y327872D02*
Y373190D01*
Y327872D02*
X143404Y268288D01*
X228706D01*
X96520Y302070D02*
X138270Y260320D01*
X64770Y302070D02*
X96520D01*
X63500Y303340D02*
X64770Y302070D01*
X138270Y260320D02*
X233941D01*
X406400Y387160D02*
X451390Y432150D01*
X460000D01*
D14*
X380000Y50000D02*
D03*
X120000Y200000D02*
D03*
X380000Y300000D02*
D03*
X120000Y450000D02*
D03*
D15*
X406400Y112160D02*
D03*
Y362160D02*
D03*
D16*
Y137160D02*
D03*
Y387160D02*
D03*
D17*
X460000Y67850D02*
D03*
X40000Y182150D02*
D03*
X460000Y317850D02*
D03*
X40000Y432150D02*
D03*
D18*
X460000Y105950D02*
D03*
Y144050D02*
D03*
Y182150D02*
D03*
X40000Y144050D02*
D03*
Y105950D02*
D03*
Y67850D02*
D03*
X460000Y355950D02*
D03*
Y394050D02*
D03*
Y432150D02*
D03*
X40000Y394050D02*
D03*
Y355950D02*
D03*
Y317850D02*
D03*
D19*
X188722Y167386D02*
D03*
X147320Y30480D02*
D03*
X172212D02*
D03*
X83820Y123190D02*
D03*
X323850Y74930D02*
D03*
X153416Y132080D02*
D03*
X226060Y31750D02*
D03*
X63500Y53340D02*
D03*
X188722Y417386D02*
D03*
X147320Y280480D02*
D03*
X172212D02*
D03*
X83820Y373190D02*
D03*
X323850Y324930D02*
D03*
X153416Y382080D02*
D03*
X226060Y281750D02*
D03*
X63500Y303340D02*
D03*
M02*
