M48
;Layer_Color=9474304
;FILE_FORMAT=4:4
METRIC,LZ
;TYPE=PLATED
T1F00S00C0.7000
T2F00S00C0.7112
T3F00S00C1.5000
T4F00S00C4.0000
%
T01
X004064Y0011216
Y0013716
Y0036216
Y0038716
T02
X000635Y0005334
X0008382Y0012319
X00153416Y0013208
X00188722Y00167386
X00172212Y0028048
X0014732
X0022606Y0028175
X0032385Y0032493
X00153416Y0038208
X0008382Y0037319
X000635Y0030334
X0014732Y0003048
X00172212
X0022606Y0003175
X0032385Y0007493
X00188722Y00417386
T03
X0046Y0006785
Y0010595
Y0014405
Y0018215
Y0031785
Y0035595
Y0039405
X0004
Y0035595
Y0031785
Y0018215
Y0014405
Y0010595
Y0006785
Y0043215
X0046
T04
X0012Y002
X0038Y003
Y0005
X0012Y0045
M30
